<svg xmlns="http://www.w3.org/2000/svg" viewBox="0 0 713.62 661.82"><title>Layer 1</title><g id="Layer_2" data-name="Layer 2"><g id="Layer_1-2" data-name="Layer 1"><path d="M134.26,126.6c0-3.63-.06-7.25-.07-10.87-.08-22.65-.58-45.31-.11-67.95.53-25.55,21.82-45.13,49.07-45.58,25.53-.41,51.07-.39,76.6-.56Q386.71.8,513.66,0c20.59-.12,37.18,7.88,46.64,26.59a55.47,55.47,0,0,1,5.37,23.75q1.86,214.37,3,428.74c.06,9.49,0,9.51,9.6,9.44q62.09-.43,124.18-.88c10.88-.07,10.87,0,10.95,11q.08,13,.18,26c.08,10,.08,10.08-10.29,10.16q-27.81.21-55.61.35c-25.94.17-51.89.19-77.83.67-3.51.06-7.26,2-10.41,3.86-14,8.32-27.64,17.1-41.6,25.41Q441.51,610.53,365,655.79a45.17,45.17,0,0,1-11.14,5.15c-15.93,4.21-30.11-7.21-30.24-24.15q-.44-60.56-.77-121.09-1.06-166.5-2.3-333c-.12-13.17,4.53-22.11,16-28.78,51.21-29.85,102.19-60.1,153.25-90.2,7.58-4.48,15.15-9,22.61-14.94-2.21-.17-4.42-.5-6.64-.48q-146.4,1.21-292.81,2.5c-8.44.07-16.89.26-25.33,0-4.85-.12-6.56,1.86-6.45,6.59.29,13,.21,26,.48,38.92.11,5.4-.76,8.63-7.55,7.33-8.77-1.66-16,1.9-22.13,8.22-5.08,5.27-10.36,10.36-15.55,15.54ZM425.5,424.81c-.24-14.44-12.51-26.49-26.51-26-14.3.48-25.57,12.49-25.51,27.18,0,12.78,12.76,25.47,25.45,25.41C414,451.3,425.73,439.57,425.5,424.81Z"/><path d="M187.87,176c5.64,6,10,10.9,14.63,15.47,3.27,3.2,3.21,5.72-.21,8.66-4.65,4-9.11,8.22-15.22,13.77,6,5.12,10.63,9.13,15.31,13.1,3.31,2.81,3.74,5.45.2,8.6s-6.62,6.77-10,10.05c-2.62,2.52-2.78,4.85,0,7.31a13.42,13.42,0,0,0,1.29,1.32c12.38,8.25,15.89,20.11,14,34.21-.58,4.22,1.35,6.83,5,9,39.64,23.28,48.45,75.23,24.05,111-12.54,18.37-30.3,29.38-52.73,33.41-37.45,6.72-75.1-17.75-86.16-51-11.62-34.89-.81-72.84,32.35-93.16,5.12-3.14,6.81-6.67,6.74-12.47-.47-39.33-.53-78.67-1-118a16.73,16.73,0,0,1,5.76-13.5c8.68-8.19,16.94-16.83,25.31-25.34,2.49-2.53,4.51-3.69,7.64-.5Q188.11,141.5,202,154.65c3.31,3.13,3.58,5.49,0,8.51C197.35,167.14,192.9,171.39,187.87,176Zm5.67,219.5c-.21-12.65-9.66-22.08-21.85-21.81-12.6.28-21.83,10-21.47,22.91.37,13.35,11.59,20.55,22.32,21.08C183.57,418.18,193.74,406.8,193.54,395.47Z"/><path d="M92.69,538.7q-41,.27-82.1.52c-9.93,0-10.27-.35-10.37-10.45Q.09,514.88,0,501c0-8,.76-8.8,8.8-8.86l119.14-.73c8.95,0,9,0,8.94-8.8,0-5.76,0-11.52-.14-17.28-.12-4.64,1.89-6.78,6.41-5.26,11.71,3.93,23.7,4.77,35.9,3.76,4.88-.4,6,2.7,6,6.62q.09,19.44.06,38.89c0,6.38-.18,12.75-.28,19.13-.13,9-.59,9.5-9.41,9.57q-41.35.32-82.72.54Z"/></g></g></svg>