<svg xmlns="http://www.w3.org/2000/svg" viewBox="0 0 1381.48 423.55"><title>Layer 1</title><g id="Layer_2" data-name="Layer 2"><g id="Layer_1-2" data-name="Layer 1"><path d="M331.51,30.36h-8.77l-198,.06c-6.94,0-7,0-7,6.81q0,11.75,0,23.49c0,2.62-.26,4.64-3.88,4-6.07-1.12-11.05,1.14-15.29,5.45-3.1,3.16-6.32,6.21-10.41,10.2-.23-2.82-.47-4.37-.47-5.92,0-13.67-.06-27.33,0-41C87.83,12.92,100.2.14,120.64.1q105.48-.19,211,0c20.49,0,33.31,13.26,33.32,33.75q0,135.72,0,271.44c0,8.78,0,8.79,8.5,8.79q38.75,0,77.49,0c6.81,0,7,.18,7,7,0,5.5-.19,11,.07,16.49.21,4.33-1.36,5.79-5.76,5.77-26.82-.16-53.65,0-80.48-.14a28.85,28.85,0,0,0-16.13,4.45c-29,17.62-58.5,34.55-87.81,51.74-12.35,7.24-24.63,14.62-37.05,21.76-10.43,6-21.79.29-23.43-11.62a46.64,46.64,0,0,1-.25-6.48q0-142.73-.09-285.44c0-9.33,3.36-15.58,11.57-20.27C254.78,76.62,290.87,55.53,327,34.57c1.64-1,3.2-2,4.8-3.05C331.73,31.13,331.62,30.75,331.51,30.36ZM239.87,272.22A16.67,16.67,0,0,0,256.55,289c9.51-.12,17.18-7.53,17.15-16.56,0-9.41-7.82-17.46-16.95-17.54S239.81,262.7,239.87,272.22Z"/><path d="M1062.09,120.68v6.38c0,37.67-.09,75.33.1,113,0,5-1.22,6.64-6.39,6.46-11.77-.39-23.57-.12-35.83-.12V198.65a39.13,39.13,0,0,0-3.9,2.16c-7.38,5.44-14.8,10.82-22,16.44-2.56,2-4.41,1.95-7,0-6.81-5.35-13.84-10.43-20.8-15.59-1.28-.94-2.63-1.78-4.61-3.11-.12,2.43-.26,4-.26,5.62,0,12.67-.09,25.34,0,38,0,3.24-1.06,4.37-4.32,4.32-10.83-.15-21.67-.26-32.5.05-4.52.14-5.65-1.48-5.62-5.73.17-21.66.08-43.33.08-65V120.71c2.51,1.55,4,2.37,5.41,3.36,20.53,14.55,41.12,29,61.47,43.8,3.69,2.68,6,2.36,9.47-.15,20.26-14.64,40.7-29,61.09-43.48C1058,123.22,1059.49,122.34,1062.09,120.68Z"/><path d="M704.28,120.88a58.9,58.9,0,0,1,48.36,28.18c13.42,21.43,14,44.29,2.51,66.63-11.26,21.95-31.06,31.5-54.85,32.28a87.18,87.18,0,0,1-29.41-4.07c-28-9.14-44.37-36.76-40.72-66.35C634.53,142.31,659.53,120.89,704.28,120.88Zm-33,63.66c0,14.53,10.86,25.33,25.25,25.18s24.91-10.72,25-25c.15-14.51-10.54-25.3-25.1-25.32S671.22,169.92,671.24,184.54Z"/><path d="M1248.56,184.41c0-36.55,26.4-63,63-63.58,14.64-.22,28.52,2.15,41.14,9.91,22.35,13.76,33.08,40.73,27.28,68.3-5.44,25.87-25.89,44.7-52.23,48.31-14.3,2-28.26,1-41.68-4.53C1262.17,232.94,1248.53,211.54,1248.56,184.41Zm91.3.36c.06-15-10-25.29-24.81-25.36s-25.14,10.35-25.16,25.09,10.61,25.27,25.14,25.22C1329.32,209.67,1339.8,199.13,1339.86,184.77Z"/><path d="M772.56,184.32c0-36.54,26.34-62.91,63-63.49,20.17-.32,38.61,4.24,52.68,19.4,18.18,19.56,21.44,42.89,13,67.46-8.24,23.89-26.61,36.17-51.12,39.76-15.37,2.26-30.27.41-44.27-6.5C784.43,230.41,772.55,209.93,772.56,184.32Zm91.3.31c0-14.74-10.36-25.23-25-25.22-14.44,0-24.85,10.31-25,24.73-.12,14.74,10.18,25.38,24.71,25.58S863.81,199.21,863.86,184.63Z"/><path d="M598.2,209.33l22.26,37.07h-8.32c-10,0-20-.11-30,.07a6.26,6.26,0,0,1-6.32-3.69c-4.38-7.84-9.19-15.46-13.43-23.37-2-3.74-5.11-3.68-8-2.79-1.1.34-1.86,3.42-1.92,5.27-.23,6.82.07,13.66-.24,20.48-.06,1.37-1.83,3.81-2.86,3.83-12.79.26-25.58.17-38.81.17-.19-2.4-.47-4.34-.47-6.29,0-37,0-73.93-.11-110.89,0-4.8,1-6.7,6.35-6.59,17.64.35,35.3,0,52.95.17,14,.12,26.86,3.48,37.59,13.4,16.72,15.46,18.25,55.18-5.63,70.78C600.3,207.57,599.45,208.35,598.2,209.33ZM552.27,183.5c6-.77,11.22-.91,16.12-2.18,5.48-1.41,8.43-6,8.59-11.56.17-5.86-2.54-10.73-8.23-12.26-4.54-1.23-9.49-1.06-14.27-1.2-.71,0-2.1,1.66-2.12,2.58C552.19,166.66,552.27,174.44,552.27,183.5Z"/><path d="M132.42,101.25c-3.07,3.21-6.58,6.9-10.38,10.89l11.43,12.33L121,135.81l13,9.67-.21,2.44-12.56,9.56c3,3.17,4.75,5.45,6.92,7.14,4.52,3.51,6.38,7.94,5.59,13.53-.87,6.11,1.14,10,6.6,13.87,17.49,12.51,23.35,30.53,19.07,51-4.21,20.17-17.5,33.4-37.5,37.94-26.28,6-48.48-8.36-57.5-29.72a49.28,49.28,0,0,1,19.72-61.5c3.69-2.26,4.75-4.76,4.72-8.83-.15-25,0-50-.13-74.93,0-3.76.89-6.61,3.77-9.21,5.43-4.91,10.43-10.29,15.82-15.25,1-.93,3.81-1.67,4.37-1.11C119.32,87.13,125.72,94.1,132.42,101.25ZM96.32,252.5c0,7.56,6.9,14.31,14.53,14.27,7.26,0,14.34-7.39,14.14-14.69a14.5,14.5,0,0,0-14.37-14.38C102.37,237.73,96.29,244,96.32,252.5Z"/><path d="M1128.9,213h7.85c11,0,22,.09,33,0,3.38,0,4.78,1,4.7,4.57-.18,8.33-.12,16.67,0,25,0,2.69-.83,3.88-3.71,3.87q-44.25-.12-88.48-.1a15.41,15.41,0,0,1-2.45-.5c0-10.52-.13-21,.14-31.4,0-1.71,1.71-3.52,2.93-5q19.17-24,38.46-48c1.1-1.37,2.11-2.82,3.8-5.08-2.79-.14-4.53-.29-6.28-.3-11.33,0-22.66-.11-34,0-3.76,0-5.35-1-5.2-5.11.3-8,.21-16,0-24-.07-3.27,1.1-4.31,4.32-4.3q43,.12,86,0c3.1,0,4.53.83,4.47,4.21-.17,8.67.11,17.34-.17,26a11.42,11.42,0,0,1-2.51,6.2c-13,16.46-26.23,32.78-39.37,49.16C1131.4,209.49,1130.51,210.81,1128.9,213Z"/><path d="M1233.76,246.37c-13.12,0-25.91.06-38.7-.12-1,0-2.28-1.49-2.77-2.58s-.21-2.62-.21-3.95q0-55.2,0-110.41c0-6.56,0-6.57,6.63-6.58,10.5,0,21,.07,31.48,0,3,0,4.09,1,4.08,4q-.12,58.46-.08,116.9A24.37,24.37,0,0,1,1233.76,246.37Z"/><path d="M58.84,343.28c-17.49,0-35-.13-52.48.09-4.75.06-6.61-1.43-6.33-6.26.31-5.48.05-11,.07-16.49,0-6.39.2-6.57,6.89-6.57H81c7,0,7,0,7-7.24,0-3.33,0-6.67,0-10,0-2.49,1-3.54,3.74-3.17,7,.95,14.09,1.95,21.17,2.33,4,.21,5.19,1.74,5.15,5.46-.14,12-.25,24,0,36,.08,4.73-1.86,6-6.25,5.92-17.66-.17-35.32-.07-53-.07Z"/></g></g></svg>