<svg xmlns="http://www.w3.org/2000/svg" viewBox="0 0 659.06 617.03"><title>VERTICAL ROOMZIO WITH TAGLINE</title><g id="Layer_2" data-name="Layer 2"><g id="Layer_1-2" data-name="Layer 1"><path d="M433.25,29.4h-8.8q-100,0-200,0c-5.22,0-6.51,1.58-6.31,6.52.38,9.27.11,18.56.11,28.44-14.18-4.43-19.83,7.26-28.93,14.53-.14-2.42-.3-3.93-.3-5.45q0-19.76,0-39.5C189,12.41,201.13.12,222.77.05c39.5-.11,79,0,118.49,0,30,0,60-.06,90,0,8.11,0,15.84,1.56,22.48,6.74,8.49,6.62,11.54,15.75,11.54,25.94q.11,136,0,272c0,11.15-1.1,9.47,9.14,9.49q39,.1,78-.12c4.38,0,6.25,1,6,5.83-.42,7.26-.11,14.56-.11,22.53h-8.06c-27,0-54,0-81-.11a18.53,18.53,0,0,0-11.74,3.73c-8.1,5.78-17,10.49-25.59,15.53-33.32,19.5-66.8,38.72-99.91,58.57-10.5,6.29-22.89-.44-23.31-11.84-.08-2-.26-4-.26-6q0-142.75,0-285.49c0-8.82,3.12-15,11-19.48,33-18.76,65.73-37.89,98.55-56.91,5.27-3.06,10.47-6.25,15.7-9.38ZM357,288.93c10.29,0,18.27-7.41,18.25-17s-8.41-18.11-17.62-18.08-17.36,8.37-17.34,17.64C340.27,281,347.89,288.91,357,288.93Z"/><path d="M211.38,77.84l21.41,23.46-11.29,9.43,12.76,13.64c-4.21,3.52-8.12,6.8-12.51,10.46L235,146.55l-13.38,10.3c2.19,2.5,3.07,4,4.37,4.89,7.19,4.83,9.34,11.66,8.11,19.85-.61,4,1.2,6.31,4.54,8.45,15.63,10,22.88,24.89,22.46,43-.45,19.61-10,34.59-27.53,43.16-21.63,10.6-45.84,5.35-61.62-14.78-14.37-18.35-13.11-45.79,2.69-63a52.83,52.83,0,0,1,11.17-9.08c3.29-2,4.37-4.21,4.35-8-.15-25.15,0-50.3-.12-75.45a11.94,11.94,0,0,1,3.93-9.6C199.8,90.68,205.15,84.51,211.38,77.84ZM196.94,252.05A14.81,14.81,0,0,0,212,266.62c7.46-.17,15.13-7.61,14.6-14.82-.74-10-7.42-15.07-15.38-15C202.81,237,196.88,243.28,196.94,252.05Z"/><path d="M417,454v94.33H385.51v-36.4c-6.94,5.13-13,9.41-18.83,14-2.59,2.06-4.38,1.92-6.89-.06C354,521.3,347.88,517,341.2,512v36.31H309.9V454.11c6.85,4.84,13.05,9.21,19.23,13.6,10.32,7.32,20.69,14.57,30.9,22,2.41,1.77,4,1.78,6.48,0,14.57-10.53,29.29-20.86,44-31.25C412.33,457.17,414.22,455.89,417,454Z"/><path d="M605.93,550c-16.75-.47-33.35-7.24-42.15-26.17-8.44-18.14-7-36.13,5.22-52.32,14.42-19.07,46.63-23.56,68.65-10A42.84,42.84,0,0,1,658,491.1C664.29,524.3,642.9,550,605.93,550Zm2.94-67.31c-11.09,0-19.2,8.24-19.12,19.35s8.31,19.27,19.32,19.19,19.11-8.24,19.08-19.41S620.11,482.69,608.87,482.73Z"/><path d="M140.32,550c-25.71,0-45.11-15-49.28-38-6.19-34.26,19.2-61.53,54-58,23.38,2.37,39.55,15.47,44,35.65C196.49,523.07,174.68,550.05,140.32,550Zm-19.2-47.93a18.81,18.81,0,0,0,19.37,19.17c11-.11,19.13-8.38,19.08-19.47s-8.19-19.12-19.37-19.07S121.08,490.93,121.12,502.11Z"/><path d="M248.25,550c-25.7,0-45.09-15-49.22-38-6.12-34.12,18.9-61.25,53.51-58,25.3,2.37,42.82,18,45.44,40.66C301.71,526.71,280.76,550,248.25,550ZM229.1,501.82c-.07,11.06,8,19.33,19.06,19.46a18.88,18.88,0,0,0,19.41-19.17c.05-11.14-8-19.31-19.11-19.37S229.17,490.67,229.1,501.82Z"/><path d="M0,455.29c7.87,0,15.49-.13,23.1,0,10.14.21,20.37-.13,30.38,1.16,14.17,1.83,24.14,9.94,27.15,24.23,3.19,15.1.71,28.92-13.06,38.6-.52.36-1,.81-1.75,1.45l16.71,28c-7.35,0-14-.67-20.38.17-8.48,1.1-13.84-1.64-16.91-9.64-1.24-3.22-3.68-6-5.13-9.12-1.72-3.75-4.14-5.4-8.83-3.89V548.4H0Zm31.39,25v20.57c6.62-.15,13.3,1.13,17.4-5.38a9,9,0,0,0-.44-10.75C43.94,479,37.67,479.94,31.39,480.29Z"/><path d="M502.33,548.54H431c0-8.08-.12-16,.13-23.93,0-1.4,1.55-2.85,2.57-4.13q14.32-18,28.73-35.87c.92-1.15,1.77-2.36,3.33-4.43H431.18V455.72h71c0,8,.13,16-.13,24.09,0,1.4-1.63,2.81-2.66,4.1Q485.3,501.46,471.21,519c-1,1.27-1.93,2.61-3.62,4.91h22.05c12.69,0,12.69,0,12.69,12.79Z"/><path d="M101.64,341.94c0-8.53,0-16.67,0-24.81,0-3.83,2.83-3,5-3q38,0,76,0c6.89,0,6.89,0,6.93-6.83,0-4,0-8,.05-12a5.8,5.8,0,0,1,.41-1.45c.48-.16,1-.5,1.4-.45,7.55.82,15.08,2,22.65,2.41,3.56.22,4.54,1.44,4.49,4.78q-.25,18.48-.12,37c0,3.35-.94,4.8-4.51,4.79q-54.24-.12-108.48-.05C104.48,342.38,103.51,342.16,101.64,341.94Z"/><path d="M547.4,548.55H516.58v-93H547.4Z"/><path d="M202.67,609.77c-2,.34-3.26.91-4.21.62-2.68-.83-6.47-1.32-7.56-3.23a11.06,11.06,0,0,1-.3-9.08c1-2,4.69-3,7.37-3.55s5.38.24,8.64.48c0,5.19.52,10.53-.25,15.67-.33,2.16-3.16,5.12-5.29,5.55-2.93.59-6.28-.83-9.41-1.57-.31-.07-.34-1.36-.5-2.08,1-.08,2.16-.54,3-.19C197.36,613.85,200,613.8,202.67,609.77Zm-4.5-1.06c2-3,4.19-5,3.94-6.45s-2.81-2.93-4.36-4.37c-1.43,1.57-3.84,3-4,4.72C193.63,604.12,196,605.85,198.17,608.71Z"/><path d="M402.17,595.12c0,5.14.41,10.62-.22,16-.23,1.91-2.67,4.13-4.64,5.13-3.57,1.8-7.31.54-11.09-3,3.21-3.46,9.74,4,11.62-3.6-1.49.34-2.72.74-4,.91a7.83,7.83,0,0,1-9-7.69c-.23-5.07,3.26-8.74,8.21-8.5C395.88,594.48,398.74,594.82,402.17,595.12Zm-8.23,13.57c1.92-3,4.07-4.93,3.82-6.44s-2.78-2.91-4.31-4.34c-1.42,1.56-3.84,3-4,4.7C389.34,604.12,391.71,605.83,393.94,608.69Z"/><path d="M593.87,610.18c-2.8,1-4.39.63-4.3-2.57,0-2,.34-4.11-.24-5.93-.46-1.44-2.07-2.52-3.17-3.75-1.22,1.17-3,2.15-3.53,3.58-.65,1.77-.38,3.93-.28,5.92.16,3.08-1.32,3.65-4.45,2.86,0-2.31.39-4.68-.11-6.84-.45-2-1.72-5.1-2.9-5.23-3.48-.37-4,2.58-3.9,5.48.06,2.13,0,4.26,0,8.19-2.14-1.6-4.15-2.36-4.22-3.27-.33-4.57-.15-9.19-.15-14.57,5.39.83,10,1.59,14.7,2.2.66.09,1.43-.6,2.15-.92,6.18-2.65,9.67-.74,10.34,5.92A88.51,88.51,0,0,1,593.87,610.18Z"/><path d="M293.12,610.19v-16c5,.69,9.61,1.38,14.28,1.91a5.74,5.74,0,0,0,2.6-.81c6.29-2.68,10-.28,10.11,6.63,0,2,.33,4.08-.12,6-.29,1.22-1.72,2.16-2.65,3.23l-1.47-.9c0-2.8.34-5.65-.14-8.36-.26-1.42-2-2.59-3-3.88-1.21,1.15-2.86,2.08-3.52,3.49s-.13,3.31-.51,4.9a26.1,26.1,0,0,1-1.91,4.31,25,25,0,0,1-2.11-4.56c-.4-1.57.19-3.46-.4-4.91-.52-1.29-2.08-3-3.16-3s-2.94,1.62-3.35,2.89a19.58,19.58,0,0,0-.39,6.42C297.44,610.53,296.1,611.27,293.12,610.19Z"/><path d="M65.89,595.23a15.88,15.88,0,0,1,.38-4.06c.36-1,1.4-1.73,2.14-2.58.62.78,1.78,1.54,1.8,2.33.15,6.44.08,12.88.08,19.31-2.87.2-5.23.29-7.56.53-3.53.37-7.25.06-8.45-3.56a15.19,15.19,0,0,1,0-9.36c1.28-3.52,5-4,8.53-3.31C63.78,594.7,64.69,595,65.89,595.23Zm-3,2-2.14,0c-1.19,1.84-3.34,3.72-3.27,5.51.06,1.55,2.59,4.08,4.14,4.17s4-2.46,4.17-4C65.94,601.11,63.94,599.14,62.88,597.26Z"/><path d="M381.3,610.29c-3.22.19-6.25.46-9.28.51-5,.09-8.32-3.52-8.09-8.6.21-4.83,3.66-8.12,8.37-7.86,2.85.16,5.69.47,9,.74Zm-2.39-7.47c-2.67-2.24-4.53-4.86-5.76-4.59a6.89,6.89,0,0,0-4.44,4.48c-.22,1.21,2.45,4,4.08,4.2C374.27,607.12,376.09,604.83,378.91,602.82Z"/><path d="M341,595c0,4.21,0,8.35,0,12.49,0,1-.2,1.94-.29,2.81-3.22.17-6.26.41-9.29.47-4.95.1-8.34-3.58-8.1-8.62s3.59-8.11,8.41-7.83C334.57,594.51,337.44,594.76,341,595Zm-9.19,14.06c2.28-2.87,4.81-4.69,4.6-6.1-.29-1.87-2.72-3.41-4.22-5.09-1.46,1.52-3.87,2.91-4.1,4.6S329.94,606,331.8,609.09Z"/><path d="M226.89,603.83H214.6c1.89,3.8,3.87,4.29,6.77,2.77,1.25-.65,2.79-.75,5.34-1.39-3.28,5.48-7.4,6.85-11.75,5.06a8.32,8.32,0,0,1-4.8-9.87c1.21-4.33,5.22-6.69,10.18-6C224.93,595.08,227,597.89,226.89,603.83Zm-12.2-3h8C219.47,596.67,218.38,596.65,214.69,600.88Z"/><path d="M533.94,594.31c5.29-.06,9.11,3.49,9,8.4s-3.56,8.06-8.77,8.11c-5.42.06-9-3.3-9-8.34C525.28,597.68,528.82,594.37,533.94,594.31Zm.24,1.73c-2.09,2.93-4.31,4.68-4.23,6.31s2.42,3.23,3.77,4.84c1.6-1.54,4.13-2.89,4.49-4.69C538.51,601.05,536.19,599.07,534.18,596Z"/><path d="M410.57,605.82c1.89.42,3.78,1.21,5.65,1.16,1.68,0,3.33-1,5.17-1.06-2.18,4.7-6.29,6.11-10.63,4.41A8.32,8.32,0,0,1,406.05,600c1.48-4.46,4.95-6,9.41-5.64,4.84.4,7.16,3.18,7.38,9.25h-11.7Zm-.43-5.1h8.65C415.74,596.86,413.37,596.93,410.14,600.72Z"/><path d="M484.15,595c5-.28,5.87,3.62,4.1,15.18-3.19.2-6.38.43-9.58.59-3.47.18-5.35-1.79-5.7-5a38.91,38.91,0,0,1,0-9c.12-1,1.83-1.86,2.81-2.78l1.24,1c0,2.46-.4,5,.14,7.36.4,1.73,2.05,3.17,3.14,4.75,1.29-1.61,3.19-3,3.71-4.87C484.64,600.05,484.15,597.45,484.15,595Z"/><path d="M82.48,610.82c-5.3,0-8.64-3.12-8.69-8.12s3.28-8.3,8.49-8.39c5.45-.09,9.07,3.3,9,8.43C91.2,607.65,87.75,610.82,82.48,610.82Zm6.2-8.49c-2.85-2-4.94-4.51-6.13-4.14a7.18,7.18,0,0,0-4.17,4.88c-.17,1.12,2.79,3.76,4.44,3.83S86,604.56,88.68,602.33Z"/><path d="M554.72,594.31c5.23.07,8.59,3.34,8.57,8.32,0,5.19-3.56,8.35-9.16,8.19-5.19-.14-8.48-3.51-8.33-8.52S549.44,594.24,554.72,594.31Zm6,8.12c-2.83-2.08-4.63-4.42-6.11-4.22-1.66.21-4.4,2.95-4.19,4.17a6.87,6.87,0,0,0,4.43,4.52C556.08,607.19,558,604.63,560.72,602.43Z"/><path d="M273.32,594.31c5.24,0,8.69,3.17,8.78,8.13.1,5.17-3.42,8.45-9,8.38-5.27-.06-8.56-3.28-8.52-8.33S268.07,594.33,273.32,594.31Zm.22,1.71c-2.11,2.91-4.32,4.62-4.25,6.24s2.33,3.29,3.63,4.93c1.63-1.52,4.18-2.83,4.59-4.63C277.83,601.13,275.53,599.11,273.54,596Z"/><path d="M433.3,594.72c8.48-.72,4.57,7.84,8.77,9.84,3.56-2,0-10.45,8.42-9.84-2.38,6.06-4.37,11.67-6.83,17.06-.74,1.61-2.66,3-4.35,3.75-1.09.51-2.75-.22-4.15-.39a13.07,13.07,0,0,0,2.25-2.79c.55-1.28,1.18-3,.81-4.15C436.86,603.8,435.09,599.52,433.3,594.72Z"/><path d="M460.77,594.31c5.25.08,8.53,3.3,8.53,8.35s-3.35,8.16-8.64,8.16c-5.49,0-9-3.38-8.85-8.54C451.94,597.43,455.54,594.23,460.77,594.31Zm6,8c-2.87-2-4.71-4.33-6.22-4.13s-4.32,3-4.09,4.26a6.88,6.88,0,0,0,4.52,4.43C462.24,607.16,464.1,604.56,466.78,602.33Z"/><path d="M165.39,594.31c5.28-.1,8.79,3,8.92,8,.13,5.08-3.08,8.41-8.25,8.55-5.57.15-9.2-3-9.25-8.15C156.76,597.75,160.19,594.41,165.39,594.31Zm.19,1.74c-2.05,3-4.41,5-4.13,6.39.36,1.81,2.88,3.19,4.46,4.76,1.37-1.6,3.72-3.13,3.83-4.81S167.63,599,165.58,596.05Z"/><path d="M345.14,610.14V595c3.26-.24,6.28-.51,9.3-.68,3.62-.19,5.72,1.76,6.15,5.16s.36,6.92.51,10.45c-3.06,1.37-4.65,1-4.53-2.52.07-1.82.38-3.77-.14-5.44-.46-1.5-1.9-2.7-2.91-4-1.39,1.18-3.41,2.11-4,3.6-.75,1.89,0,4.32-.53,6.37-.3,1.2-1.76,2.12-2.7,3.17Z"/><path d="M99,612c-2.2-1.7-4.18-2.49-4.25-3.42-.33-4.56-.15-9.16-.15-13.45,3.38-.31,6.06-.57,8.74-.78,4-.32,6.46,1.36,6.77,5.46a59.44,59.44,0,0,1,.07,8.44c0,.83-1.12,1.6-1.72,2.39-.77-.82-2-1.55-2.19-2.47-.37-2.1.18-4.4-.38-6.41-.41-1.45-2-2.56-3.09-3.82-1.27,1.27-3.3,2.38-3.63,3.86C98.6,604.45,99,607.34,99,612Z"/><path d="M148.18,611.91c-1.43-6.39-2.49-10.83-3.41-15.31-.59-2.87,4.26-8.4,7.23-8.21a10.32,10.32,0,0,1,2.93,1.17c-.78.74-1.55,1.49-2.34,2.21-.45.43-.94.82-1.83,1.59,1.21.51,2.2.66,2.77,1.23a9.5,9.5,0,0,1,1.33,2.53c-6.31,1.67-2.75,6.88-3.82,10.44C150.64,608.89,149.47,610,148.18,611.91Z"/><path d="M122.36,596.22c.79-1.52,1.56-3.05,2.39-4.54.22-.39.87-1,1-.92,2.4,1.49,4.76,3,7.12,4.6l-3.43,4.21c.5,2-3.07,6.47,2.89,8.09.34.09.73,1.24.54,1.67a2.75,2.75,0,0,1-1.58,1.41c-3.79,1.08-6.22-.85-6.66-5-.33-3.21-.77-6.4-1.17-9.6Z"/><path d="M260.35,610.73c-5,.37-6.06-2.06-6.49-5.47-.35-2.75-1.75-5.46-1.68-8.16,0-2.13,1.64-4.22,2.55-6.33,1.26.81,2.52,1.62,3.79,2.41.78.49,1.94.76,2.28,1.44.41.87.61,2.64.13,3-3.53,2.69-3.71,7-.26,9.7.65.53,1.56,1.84,1.37,2.11A4.75,4.75,0,0,1,260.35,610.73Z"/><path d="M237.88,610.77c-4.36.2-5.66-1.64-6.11-4.75s-1.84-6.12-1.78-9.16c0-2.05,1.86-4.08,2.89-6.12,1.15.92,2.29,1.86,3.47,2.76.49.37,1.07.62,1.58,1,.71.49,1.39,1,2.08,1.55a10.13,10.13,0,0,1-1.82,1.77c-2.81,1.65-2.95,7.34-.28,9.39a12.24,12.24,0,0,1,2,2.65Z"/><path d="M181.76,610.37c-4.54-.1-5-2-3.61-15.36a72.2,72.2,0,0,1,7.79-.43c.46,0,.87,1.78,1.29,2.73C179.88,599.12,182.65,605.36,181.76,610.37Z"/><path d="M517.65,610.46c-4.41-.27-4.91-2.68-3.46-15.5a74.44,74.44,0,0,1,7.77-.35c.46,0,1.48,2.23,1.17,2.66C518.58,603.55,518.54,603.52,517.65,610.46Z"/><path d="M492.59,594.92H503c-2.27,2.46-4.86,4.12-5.62,6.38-.9,2.66-.21,5.85-.21,8.78-3.1,1.1-4.63.69-4.58-2.48C492.64,603.46,492.59,599.33,492.59,594.92Z"/><path d="M600.73,604.18c-.9-.95-2.47-1.82-2.59-2.87a50.55,50.55,0,0,1-.1-9.37c.05-.69,1.38-1.31,2.11-2,.65.76,1.81,1.49,1.85,2.28.19,3.75.09,7.51.09,11.26Z"/><path d="M118,590.22c-.53,6.54-.53,6.54-5,5.86C114.41,593.92,112.2,589.21,118,590.22Z"/></g></g></svg>