<svg xmlns="http://www.w3.org/2000/svg" viewBox="0 0 855.66 714.24"><title>Layer 1</title><g id="Layer_2" data-name="Layer 2"><g id="Layer_1-2" data-name="Layer 1"><path d="M561.53,39.32H550l-255.9.08c-9.3,0-9.3,0-9.31,9.18,0,9.93-.12,19.87,0,29.8.06,4.44-1.15,6.16-6.07,5.32-7-1.2-13.2,1.43-18.12,6.55-4.16,4.33-8.11,8.87-12.15,13.32l-2.12-1c-.18-2.17-.52-4.33-.52-6.5q-.07-26.23,0-52.47C245.88,16.32,262,.15,289.43.06c39.73-.13,79.47,0,119.21,0q75.8,0,151.6,0c11.23,0,21.78,2.29,30.67,10C601.21,19,605,30.56,605,43.55q.12,175.25,0,350.49c0,15.31-1,12.89,12.63,12.94,33,.11,66.09,0,99.13,0,8.38,0,8.66.33,8.69,8.82,0,7.34-.21,14.69.08,22,.21,5.33-1.83,7.12-7.16,7.1-35-.17-70,0-105-.15-7.44,0-13.61,1.36-20.32,5.58-24.66,15.49-50.05,29.83-75.18,44.57-28.85,16.93-57.68,33.92-86.62,50.7-14.08,8.17-29.07.3-30.73-15.9-.28-2.78-.21-5.61-.21-8.41q0-184-.15-368c0-12.89,4.59-21.3,15.89-27.73,46.88-26.69,93.45-53.95,140.12-81,2-1.16,3.9-2.53,5.85-3.8C561.88,40.29,561.71,39.8,561.53,39.32ZM464.31,374.55c12.36-.06,22.34-9.47,22.48-21.2.15-12.36-10.37-23.17-22.36-23A22.09,22.09,0,0,0,443,352.51C443,364.72,452.55,374.61,464.31,374.55Z"/><path d="M304.6,131.93l-15.29,12.12,16.05,17.78-15.89,14.11,17,13.55-17.73,13.88c4,4.34,6,7.19,8.6,9.19,6.45,4.92,9.22,11.17,8,19.14-1.15,7.58,1.67,12.14,8.23,16.82,22.68,16.19,30.5,39.39,25.13,66-5.29,26.19-22.4,43.35-48.27,49.49-33,7.83-62.44-9.55-74.76-38-12.55-29-2.1-63.08,24.47-79.51,5.29-3.27,7.14-6.77,7.08-12.9-.3-32.15-.05-64.31-.23-96.46a14.56,14.56,0,0,1,5-11.87c7-6.39,13.48-13.37,20.51-19.74,1.31-1.18,5.2-1.7,6.15-.75C287.12,113.12,295.11,121.85,304.6,131.93ZM275.26,308c-10.72.16-18.47,8.34-18.35,19.36.1,9.74,9.22,18.52,19,18.31,9.26-.21,18-9.19,18.14-18.59C294.2,316.65,285.55,307.88,275.26,308Z"/><path d="M443.42,664.65v47.29c-13.17,0-25.61.1-38-.16-1.2,0-2.8-2.1-3.39-3.55s-.24-3.4-.24-5.13q0-53.1,0-106.19v-8.6c3.43,2.19,5.53,3.42,7.5,4.82,19.37,13.73,38.78,27.39,58,41.32,3.58,2.6,5.93,2.63,9.53,0,18.86-13.68,37.94-27.07,57-40.54,2.23-1.59,4.53-3.09,7.85-5.34.23,3.14.52,5.14.52,7.15,0,36.26-.1,72.52.14,108.78,0,5.89-1.59,7.9-7.6,7.6-9.47-.48-19-.33-28.48,0-4.63.13-6-1.7-6-6.05.16-10.79,0-21.58,0-32.37v-8.74C492.06,671,485,675.8,478.48,681.25c-4.54,3.8-7.93,4.36-12.74.18C459.15,675.69,451.77,670.85,443.42,664.65Z"/><path d="M323,588.39c32.11,0,56.77,18.07,63.52,46.58,9.65,40.73-15.63,75.48-57.37,78.48-25.6,1.84-47.8-5.31-61.92-28.06-13.07-21-13.17-43.48-1.86-65.39C275.86,599.61,297.16,588.41,323,588.39Zm24.33,62.85c0-14.44-10-24.66-24.16-24.72S298.58,636.88,298.45,651s10.15,24.43,24.42,24.5C337.45,675.55,347.28,665.79,347.29,651.24Z"/><path d="M183.2,588.06c60.46,1.06,76.77,57.43,58,93.62-5.64,10.88-13.9,19.34-24.92,24.57-22.4,10.62-45.17,10.86-67.26-.53C125,693.34,113.72,667,118.89,638c4.49-25.11,24.39-44.31,50.2-48.32C173.76,588.92,178.5,588.57,183.2,588.06Zm24.13,63.06c0-14.37-10.06-24.59-24.23-24.6-14,0-24.59,10.59-24.58,24.58,0,14.23,10.22,24.37,24.54,24.38C197.67,675.49,207.32,665.8,207.33,651.12Z"/><path d="M855.66,651.24c-.09,37-26.73,62.71-65.17,62.82-38.6.11-65.54-26-65.32-63.32s27-62.51,66.14-62.34C829.23,588.56,855.76,614.46,855.66,651.24Zm-65.1,24.23c14.48-.06,24.33-10,24.31-24.47,0-14.27-10.33-24.55-24.54-24.49-14,.07-24.42,10.66-24.37,24.74C766,665.56,776.13,675.53,790.56,675.47Z"/><path d="M87,675.63c7.07,11.81,13.9,23.24,21.76,36.36H95.53c-7.77,0-15.56-.2-23.32.09-4,.15-6.32-1.36-8.2-4.81-3.92-7.2-7.93-14.39-12.5-21.18-1.33-2-4.7-2.57-7.14-3.8-.83,2.15-2.27,4.27-2.39,6.46-.34,6-.22,12.09-.1,18.13.07,3.37-.79,5.21-4.68,5.15q-16.2-.25-32.4,0C1,712.09,0,710.19,0,706.87c0-37.14,0-74.29.19-111.44,0-1.79,2.53-5.14,3.86-5.13,22.42.21,45-.36,67.22,1.74C89.34,593.74,102,605,106,623.17c4.34,19.6,1.11,37.45-16.38,50.3C88.94,674,88.31,674.56,87,675.63ZM41.69,649.11c4.21,0,7.62.26,11-.05,8.2-.75,14-6.08,12.81-13.12-.65-3.89-3.53-9-6.79-10.46-4.53-2-10.37-1.2-15.65-1.32-.42,0-1.26,2.09-1.28,3.23C41.62,634.26,41.69,641.14,41.69,649.11Z"/><path d="M608,679.12c13.55,0,25.58.25,37.59-.12,5.66-.17,7.79,1.62,7.46,7.35-.41,6.89.16,13.83-.33,20.71-.13,1.72-2.68,4.69-4.14,4.7-29.33.28-58.66.21-88.95.21,0-11-.17-21.48.16-31.94.06-1.82,2-3.69,3.38-5.35q18-22.53,36-45c1.28-1.6,2.4-3.33,4.5-6.28H569.44c-10.05,0-10.05,0-10.05-10.25,0-6,.15-12.1,0-18.14-.11-3.65,1.41-5,4.93-5q41.79.07,83.57,0c3.55,0,5.07,1.58,5,5.09-.07,8.21.24,16.43-.19,24.61-.13,2.52-1.74,5.28-3.39,7.37-11.9,15.09-24,30-36,45C611.83,673.91,610.45,675.82,608,679.12Z"/><path d="M208.35,444.86c-22.67,0-45.34-.17-68,.12-6.14.08-8.6-1.82-8.23-8.1.41-6.88.09-13.81.09-20.72,0-9,.14-9.18,8.92-9.18h96.52c8.45,0,8.46,0,8.51-8.72,0-4.54,0-9.07,0-13.6,0-3.81,1.84-4.54,5.47-4,8.68,1.27,17.41,2.44,26.16,2.87,5.11.26,7.44,1.59,7.35,7.07-.25,15.55-.33,31.1-.06,46.64.11,6.1-2.36,7.74-8.08,7.68-22.89-.22-45.78-.09-68.67-.09Z"/><path d="M669.74,651.4c0-18.15.17-36.29-.1-54.43-.08-5.38,1.69-7.26,7.05-7.09,9.71.32,19.44.19,29.15.06,4.11-.05,5.72,1.49,5.71,5.72q-.16,55.41,0,110.81c0,4.21-1.51,5.68-5.7,5.59-9.71-.22-19.45-.33-29.15,0-5.33.2-7.15-1.49-7.06-6.92C669.92,687.25,669.74,669.32,669.74,651.4Z"/></g></g></svg>