<svg xmlns="http://www.w3.org/2000/svg" viewBox="0 0 1394.41 1289.97"><defs><style>.cls-1{fill:#04b;}</style></defs><title>Layer 1</title><g id="Layer_2" data-name="Layer 2"><g id="Layer_1-2" data-name="Layer 1"><path class="cls-1" d="M1017,87.42c-3.43-.46-6.86-1.33-10.29-1.32q-104.37.3-208.76.77c-8.31,0-16.63-.44-24.94-.45q-201.69-.18-403.39-.31c-15.15,0-15.58.38-15.6,15.2q0,40.75,0,81.51c0,9.33-.48,9.72-9.31,8-18-3.55-32.46,3.79-45.31,15.21-7,6.25-13.29,13.36-20.05,19.93-2.7,2.62-5.8,4.83-10.34,8.55-.53-4.66-1.13-7.44-1.13-10.23,0-42.7-.39-85.4.17-128.1.32-24.6,5.85-48.44,23.77-66.31C301.3,20.39,313.69,13,326,7.48,345.91-1.36,367.85.12,389,.06c64.59-.19,129.19.68,193.78.75Q762.07,1,941.32.73c24.93,0,49.87-.19,74.79.17,27.77.41,52.17,9.17,70.67,30.88,10.17,11.93,18,25.12,19.8,41.11,6.76,61.38,2.37,123,2.55,184.42.62,217.65.38,435.3.48,653,0,12.75,0,25.51.09,38.26.11,10.46,2.3,12.55,12.85,12.55q128.1,0,256.19,0c3,0,6.49-.76,9,.4s6.25,4.28,6.29,6.61c.49,23,.3,46,.34,69,0,6-3.56,7.26-8.72,7.24-17.74-.07-35.49.12-53.23.11-75.13,0-150.26-.2-225.39.11-4.25,0-8.74,3.38-12.67,5.89-10.43,6.66-20.3,14.24-30.94,20.52q-76.1,44.88-152.5,89.24c-34.62,20.2-69.32,40.27-103.92,60.49-35.34,20.65-70.54,41.55-105.95,62.07-24.47,14.19-50.64,7.18-63.19-18.22-4-8.19-4.12-18.88-4.15-28.42-.27-82.07-.1-164.14-.09-246.21q0-314,.05-628c0-3.33.2-6.67,0-10-1.69-24.64,9.44-41.17,30.76-53.07,41-22.9,81.55-46.78,122.17-70.44Q883.39,172,980,115.37c10.27-6,20.63-11.84,30.75-18.09,2.8-1.73,4.86-4.66,7.27-7C1017.66,89.3,1017.31,88.36,1017,87.42ZM780.83,884.48c31.67-.19,56.78-23.94,56.43-54-.38-32.53-25.92-56.34-55.28-57-26.81-.64-55.17,25.23-55,57C727.14,860.1,758.07,887.57,780.83,884.48Z"/><path class="cls-1" d="M316.59,856.23c-53.16-6.07-97.57-37.42-121.73-95-11.32-27-12.67-55.78-6.74-84.87,7.27-35.65,25.08-64.57,53.4-87.05,6.69-5.31,14.17-9.68,21.49-14.14,5.77-3.5,8.31-8.06,8.29-15-.15-81,0-161.92-.21-242.88,0-8.2,2.53-14,8.41-19.61,17.22-16.47,34.05-33.35,50.69-50.41,4.56-4.67,7.89-4.88,12.39-.35Q368.64,273,395,299c3.72,3.68,3.77,6.84-.06,10.56-7.72,7.49-15,15.41-22.84,22.8-5.36,5.08-5.62,9.54-.3,14.74,7.52,7.37,14.55,15.24,22.23,22.44,5.42,5.08,4.93,9.05-.32,13.73-7.44,6.64-14.58,13.61-21.83,20.47-4.79,4.53-5.87,8.76-.23,13.89,7.77,7.08,14.84,14.93,22.47,22.17,4.59,4.35,4.94,8.05.23,12.56-7.79,7.46-15.14,15.39-23,22.8-4.7,4.45-4.57,8.37-.2,12.71,8.06,8,16.52,15.68,23.93,24.27a27.55,27.55,0,0,1,6.41,14.5,272.64,272.64,0,0,1,.49,34.07c-.28,7.91,2.89,13,9.44,17,43.79,26.78,68.75,65,72.36,117,4,57.23-16.66,102.17-63.46,135.81C391.63,851.06,359.82,857.46,316.59,856.23Zm-27.66-88.39c-3.15,30,26,48.77,47.16,47.43,23.28-1.48,46.67-17.56,46-46-.57-25.58-15.3-45.77-45.94-47.76C312.25,720,286.64,741,288.93,767.84Z"/><path class="cls-1" d="M176.69,1044.39q-81.9,0-163.79,0c-12.28,0-12.75-.5-12.8-12.47-.08-19.68-.07-39.35-.1-59C0,961.43.41,961,12.4,961l240.28,0c14.59,0,16.76-2.06,16.85-16.82.07-12.74-.26-25.49-.07-38.24.13-8.19,1.9-9.31,9.64-6.55,20.79,7.42,42.35,6.93,63.94,6.63,10.94-.15,11.54.63,11.52,11.88q-.1,57-.3,113.91c0,11.8-.75,12.43-12.95,12.43H176.69Z"/></g></g></svg>