<svg xmlns="http://www.w3.org/2000/svg" viewBox="0 0 2147.34 313.14"><defs><style>.cls-1{fill:#04b;}</style></defs><title>Asset 2</title><g id="Layer_2" data-name="Layer 2"><g id="Layer_1-2" data-name="Layer 1"><path class="cls-1" d="M1358.52,2.05V307.84c-2.48.18-4.73.5-7,.5-28.58,0-57.18-.2-85.76.19-6.87.09-8.32-2.37-8.27-8.59.22-33.57.11-67.14.08-100.71,0-3.29-.28-6.57-.51-11.4-10.8,8-20.27,14.89-29.7,21.88-12.21,9.06-24.56,17.95-36.49,27.37-4.69,3.7-8,4-12.87.22-19.14-14.68-38.6-28.94-58-43.33-2.27-1.69-4.64-3.26-8.29-5.81v119.7H1010.45V2c2.84,1.86,5.37,3.4,7.78,5.11q79.51,56.43,158.91,113.05c5.35,3.83,8.81,4,14.26.14q79.92-57.21,160.24-113.88C1353.5,5.09,1355.5,4,1358.52,2.05Z"/><path class="cls-1" d="M457.73,313.13c-37.72-.68-72.83-9.47-103.31-32.38C319.6,254.59,301.37,219,296.57,176c-3.14-28.15-.16-55.5,10.52-81.67C323,55.44,350.53,27.72,390,13.22,443.27-6.37,496.11-4.85,546.26,23c43.32,24,66.5,62.49,72.68,111.3,4.75,37.48-.78,73.19-20.62,105.84-24.64,40.52-61.86,62.14-107.81,69.82C479.71,311.73,468.66,312.1,457.73,313.13Zm-.55-93c36.69.62,64-25.87,64.41-62.56s-26-63.89-62.67-64.41-63.56,25.71-64.3,62.66C393.9,192.45,420.17,219.46,457.18,220.08Z"/><path class="cls-1" d="M1985.21,313.14c-43.74-.75-83.55-12.13-116.12-42.47-27.14-25.29-41.64-57.12-45.71-94-3-26.75-.57-52.89,8.83-78.08,14.25-38.17,39.74-66.53,77.4-82.42,52.41-22.13,105.28-22.1,156.56,3.1,47.06,23.14,72.63,62.61,79.45,114.26,4.6,34.87.25,68.49-16.67,99.78-23.95,44.28-62.37,68-111,76.51C2007.21,311.77,1996.15,312.09,1985.21,313.14Zm1.21-93.08c37.48-1.26,62.92-28.29,61.89-65.77-1-36.17-29.4-62.57-65.84-61.17s-62.47,29.23-61.08,65.09C1922.82,195.33,1950.11,221.28,1986.42,220.06Z"/><path class="cls-1" d="M809.78,313.12c-43.74-.8-83.64-12.15-116-42.74-35-33.09-48-74.93-46.29-122.34C650.15,73.33,702.14,14.81,776.09,3.6c47.25-7.17,92.19-1.66,132.33,25.75,39.29,26.83,59.27,65.3,63,112.42,2.88,36.23-3.32,70.46-23.29,101.42C923.29,281.71,887,302.4,842.57,309.9,831.77,311.72,820.72,312.09,809.78,313.12Zm-.15-93.05c37.15,0,63.31-26.19,63.32-63.3S846.8,93.18,809.9,93.11s-63.68,26.86-63.59,64.2C746.39,193.46,773.28,220.12,809.63,220.07Z"/><path class="cls-1" d="M213.71,217.11l54.45,90.78c-2.47.22-3.9.46-5.33.46-29.9,0-59.8-.08-89.7.12-4.57,0-7-1.54-9.26-5.44-12.22-21.38-24.69-42.62-37.1-63.89-3-5.14-19.48-8.92-23.66-5-1.53,1.42-1.77,4.74-1.79,7.2-.14,19.14-.08,38.29-.08,57.44v8.67a18.49,18.49,0,0,1-3.59.85c-30.43,0-60.85,0-91.28.17-4.91,0-6.66-1.83-6.33-6.41.09-1.31,0-2.63,0-3.94Q0,156.87,0,15.63C0,5.12.07,5.07,10.2,5.09c45.11.07,90.24-.62,135.32.64a184.05,184.05,0,0,1,50.76,8.74c42.26,13.64,68,49.51,69.87,94,.8,19.25-.54,38.16-7.46,56.44a96.27,96.27,0,0,1-39,47.93c-1.32.85-2.63,1.71-3.92,2.6C215.37,215.68,215,216,213.71,217.11Zm-112.38-64c11.29,0,21.8.89,32.11-.2,17.1-1.8,29.42-13.67,31.22-28.36,2.05-16.72-5.13-29.88-20.09-36.09-14-5.82-28.58-3.33-43.24-3.13Z"/><path class="cls-1" d="M1636.68,228.4V308c-2.86.15-5.4.39-7.94.39-71.34,0-142.68-.09-214,.19-7.27,0-9.45-2-9.32-9.18.41-21.23-.13-42.49.37-63.72a23.81,23.81,0,0,1,4.76-13.37C1445,179,1479.7,135.91,1514.35,92.78c1.61-2,3.08-4.13,5.54-7.45-3.89-.19-6.57-.44-9.25-.44-32.52,0-65-.17-97.56.11-6,.06-7.67-2-7.61-7.64q.35-32.25,0-64.52c0-5.55,1.42-7.88,7.52-7.87q109,.27,218,.15c1.76,0,3.53.36,6.09.64,0,19.42-.8,38.53.25,57.55.83,15-3.27,26.56-13.09,38.29-32,38.19-62.68,77.43-93.86,116.28-2.41,3-4.74,6.05-8.24,10.52Z"/><path class="cls-1" d="M1683.85,308.36V5.78a65.3,65.3,0,0,1,6.69-.66c28.58,0,57.16.12,85.74-.16,6.15-.06,8.19,1.84,8.18,8q-.21,143.94-.09,287.88c0,4.1.21,7.66-5.94,7.61C1747.24,308.23,1716,308.36,1683.85,308.36Z"/></g></g></svg>