<svg width="24" height="24" viewBox="0 0 24 24" fill="none" xmlns="http://www.w3.org/2000/svg">
<path d="M10.472 16.6389C10.2738 16.6389 10.0837 16.5612 9.94351 16.4227C9.80335 16.2842 9.72461 16.0965 9.72461 15.9006V10.7917C9.72461 10.5952 9.80362 10.4067 9.94427 10.2678C10.0849 10.1288 10.2757 10.0508 10.4746 10.0508C10.6735 10.0508 10.8643 10.1288 11.0049 10.2678C11.1456 10.4067 11.2246 10.5952 11.2246 10.7917V15.8977C11.225 15.9953 11.2058 16.0921 11.1681 16.1823C11.1303 16.2726 11.0749 16.3546 11.0049 16.4235C10.9349 16.4924 10.8518 16.547 10.7603 16.584C10.6688 16.6209 10.5708 16.6396 10.472 16.6389Z" fill="#AEAEB2"/>
<path d="M13.472 16.6389C13.2738 16.6389 13.0837 16.5612 12.9435 16.4227C12.8033 16.2842 12.7246 16.0965 12.7246 15.9006V10.7917C12.7246 10.5952 12.8036 10.4067 12.9443 10.2678C13.0849 10.1288 13.2757 10.0508 13.4746 10.0508C13.6735 10.0508 13.8643 10.1288 14.0049 10.2678C14.1456 10.4067 14.2246 10.5952 14.2246 10.7917V15.8977C14.225 15.9953 14.2058 16.0921 14.1681 16.1823C14.1303 16.2726 14.0749 16.3546 14.0049 16.4235C13.9349 16.4924 13.8518 16.547 13.7603 16.584C13.6688 16.6209 13.5708 16.6396 13.472 16.6389Z" fill="#AEAEB2"/>
<path d="M19.0462 6.32511H14.8557V4.86329C14.8557 4.66749 14.777 4.4797 14.6368 4.34124C14.4967 4.20278 14.3066 4.125 14.1084 4.125H9.88649C9.68827 4.125 9.49818 4.20278 9.35802 4.34124C9.21786 4.4797 9.13912 4.66749 9.13912 4.86329V6.32511H4.89707C4.68911 6.33139 4.4918 6.41741 4.34695 6.56494C4.2021 6.71248 4.12109 6.90993 4.12109 7.11545C4.12109 7.32098 4.2021 7.51843 4.34695 7.66596C4.4918 7.8135 4.68911 7.89952 4.89707 7.9058H6.21991L6.8178 17.3774C6.86197 18.0531 7.16445 18.6871 7.664 19.1508C8.16354 19.6145 8.82282 19.8734 9.50832 19.875H14.4312C15.1167 19.8734 15.776 19.6145 16.2755 19.1508C16.7751 18.6871 17.0776 18.0531 17.1217 17.3774L17.7196 7.9058H19.0462C19.1533 7.90903 19.26 7.89098 19.3599 7.85272C19.4599 7.81446 19.551 7.75676 19.6279 7.68305C19.7049 7.60934 19.766 7.52112 19.8078 7.42362C19.8496 7.32612 19.8711 7.22133 19.8711 7.11545C19.8711 7.00958 19.8496 6.90479 19.8078 6.80729C19.766 6.70979 19.7049 6.62157 19.6279 6.54786C19.551 6.47415 19.4599 6.41645 19.3599 6.37819C19.26 6.33993 19.1533 6.32188 19.0462 6.32511ZM10.6353 5.60675H13.3558V6.23947H10.6353V5.60675ZM15.4588 17.2755C15.4418 17.5329 15.3264 17.7742 15.1361 17.9508C14.9457 18.1273 14.6946 18.2258 14.4335 18.2264H9.51056C9.24934 18.2258 8.9981 18.1272 8.80772 17.9505C8.61734 17.7738 8.50204 17.5322 8.48517 17.2747L7.89625 7.97224H16.0478L15.4588 17.2755Z" fill="#AEAEB2"/>
</svg>
