<svg width="24" height="24" viewBox="0 0 24 24" fill="none" xmlns="http://www.w3.org/2000/svg">
<path d="M19.8122 11.3541C17.0869 8.6877 14.2519 7.41232 11.4539 7.50468C7.73161 7.65165 5.07368 10.2354 4.10519 11.3397C3.8637 11.6189 3.73666 11.9849 3.75111 12.3599C3.76556 12.7349 3.92034 13.0892 4.18255 13.3475C6.82887 15.9393 9.54172 17.25 12.2515 17.25C12.3807 17.25 12.5106 17.25 12.6382 17.2412C16.3412 17.0685 18.9528 14.4623 19.9042 13.3483C20.1421 13.069 20.2656 12.7043 20.2484 12.3318C20.2312 11.9594 20.0747 11.6086 19.8122 11.3541ZM12.1285 15.6911C11.4962 15.6911 10.878 15.4964 10.3523 15.1317C9.82651 14.7669 9.41673 14.2485 9.17475 13.642C8.93277 13.0355 8.86946 12.368 8.99282 11.7241C9.11618 11.0802 9.42067 10.4888 9.86779 10.0246C10.3149 9.56033 10.8846 9.24419 11.5048 9.11611C12.1249 8.98803 12.7678 9.05377 13.352 9.305C13.9361 9.55624 14.4355 9.98169 14.7868 10.5276C15.1381 11.0734 15.3256 11.7152 15.3256 12.3717C15.3252 13.2522 14.9883 14.0966 14.3889 14.7195C13.7895 15.3425 12.9766 15.693 12.1285 15.6943V15.6911ZM8.09518 10.0129C7.71882 10.6766 7.50685 11.4268 7.47823 12.1965C7.44961 12.9661 7.60524 13.7311 7.93118 14.4229C6.95628 13.8238 6.05005 13.1117 5.22994 12.3002C6.05833 11.3805 7.02622 10.6078 8.09518 10.0129ZM16.2747 14.5217C16.58 13.9086 16.7517 13.2334 16.7778 12.5437C16.8038 11.8541 16.6836 11.167 16.4256 10.5309C17.2624 11.0742 18.0457 11.7018 18.764 12.4046C18.0384 13.2329 17.1997 13.9461 16.2747 14.5217Z" fill="#AEAEB2"/>
<path d="M12.1358 14.7528C11.6502 14.7561 11.1754 14.6034 10.7766 14.3157C10.3778 14.028 10.0744 13.6192 9.90809 13.1455C9.74173 12.6718 9.72051 12.1563 9.84735 11.6695C9.97419 11.1828 10.2429 10.7487 10.6166 10.4267C10.9903 10.1047 11.4508 9.91056 11.9349 9.87087C12.4191 9.83118 12.9032 9.94788 13.321 10.205C13.7387 10.4621 14.0697 10.847 14.2686 11.307C14.4674 11.7671 14.5244 12.2797 14.4317 12.7746C14.4118 12.8843 14.3666 12.9874 14.3002 13.0752C14.2338 13.163 14.1479 13.2329 14.05 13.2789C13.952 13.325 13.8449 13.346 13.7375 13.3399C13.6301 13.3339 13.5257 13.3012 13.4331 13.2445C13.384 13.2082 13.3261 13.1868 13.266 13.1826C13.1724 13.1826 13.0827 13.2212 13.0166 13.2899C12.9504 13.3586 12.9132 13.4517 12.9132 13.5488C12.9164 13.6058 12.9332 13.661 12.962 13.7095C13.0115 13.8081 13.0376 13.9175 13.038 14.0288C13.0385 14.14 13.0132 14.2496 12.9645 14.3487C12.9157 14.4477 12.8448 14.5331 12.7577 14.5978C12.6706 14.6625 12.5698 14.7046 12.4638 14.7206C12.3554 14.7397 12.2458 14.7504 12.1358 14.7528ZM12.1358 11.2888C11.9189 11.2878 11.7077 11.3602 11.534 11.4952C11.3604 11.6301 11.2338 11.8201 11.1735 12.0364C11.1133 12.2527 11.1226 12.4835 11.2001 12.6938C11.2775 12.9042 11.4189 13.0825 11.6029 13.2019C11.6717 12.8504 11.8423 12.5292 12.0919 12.2812C12.3414 12.0332 12.6579 11.8702 12.9991 11.8141C12.9127 11.6552 12.7873 11.5229 12.6356 11.4306C12.484 11.3384 12.3116 11.2895 12.1358 11.2888Z" fill="#AEAEB2"/>
</svg>
