<svg width="1650" height="232" viewBox="0 0 1650 232" fill="none" xmlns="http://www.w3.org/2000/svg">
<g id="Graphic Side">
<g clip-path="url(#clip0_2575_1502)">
<path d="M0 0H1650V216C1650 224.837 1642.84 232 1634 232H16C7.16343 232 0 224.837 0 216V0Z" fill="url(#paint0_radial_2575_1502)"/>
<g id="Big Circles">
<g id="Ellipse 5" style="mix-blend-mode:multiply" opacity="0.75" filter="url(#filter0_i_2575_1502)">
<ellipse cx="884" cy="823.307" rx="1056.31" ry="1078" transform="rotate(90 884 823.307)" fill="white"/>
</g>
<g id="Ellipse 4" style="mix-blend-mode:multiply" opacity="0.75" filter="url(#filter1_i_2575_1502)">
<ellipse cx="641.164" cy="823.306" rx="817.689" ry="835.164" transform="rotate(90 641.164 823.306)" fill="white"/>
</g>
<g id="Ellipse 3" style="mix-blend-mode:multiply" opacity="0.75" filter="url(#filter2_i_2575_1502)">
<ellipse cx="609.227" cy="901.64" rx="694.765" ry="709.226" transform="rotate(90 609.227 901.64)" fill="white"/>
</g>
</g>
<g id="Frame 35289">
<g id="Frame 35288">
<path id="Welcome!" d="M48.44 92L40.1161 62.9091H46.8349L51.6502 83.1222H51.8917L57.2042 62.9091H62.957L68.2553 83.1648H68.511L73.3264 62.9091H80.0451L71.7212 92H65.7269L60.1871 72.9801H59.9599L54.4343 92H48.44ZM90.8228 92.4261C88.5785 92.4261 86.6467 91.9716 85.0273 91.0625C83.4175 90.1439 82.177 88.8466 81.3058 87.1705C80.4345 85.4848 79.9989 83.4915 79.9989 81.1903C79.9989 78.946 80.4345 76.9763 81.3058 75.2812C82.177 73.5862 83.4033 72.2652 84.9847 71.3182C86.5756 70.3712 88.4412 69.8977 90.5813 69.8977C92.0207 69.8977 93.3607 70.1297 94.6012 70.5938C95.8512 71.0483 96.9402 71.7348 97.8683 72.6534C98.8058 73.572 99.5349 74.7273 100.056 76.1193C100.577 77.5019 100.837 79.1212 100.837 80.9773V82.6392H82.4137V78.8892H95.141C95.141 78.018 94.9516 77.2462 94.5728 76.5739C94.194 75.9015 93.6684 75.3759 92.9961 74.9972C92.3332 74.6089 91.5614 74.4148 90.6808 74.4148C89.7622 74.4148 88.9478 74.6278 88.2376 75.054C87.5368 75.4706 86.9876 76.0341 86.5898 76.7443C86.1921 77.4451 85.9885 78.2263 85.979 79.0881V82.6534C85.979 83.733 86.1779 84.6657 86.5756 85.4517C86.9828 86.2377 87.5558 86.8438 88.2944 87.2699C89.033 87.696 89.909 87.9091 90.9222 87.9091C91.5946 87.9091 92.2101 87.8144 92.7688 87.625C93.3275 87.4356 93.8058 87.1515 94.2035 86.7727C94.6012 86.3939 94.9042 85.9299 95.1126 85.3807L100.709 85.75C100.425 87.0947 99.8427 88.2689 98.962 89.2727C98.0908 90.267 96.9639 91.0436 95.5813 91.6023C94.2082 92.1515 92.622 92.4261 90.8228 92.4261ZM110.837 62.9091V92H104.786V62.9091H110.837ZM125.542 92.4261C123.307 92.4261 121.385 91.9527 119.775 91.0057C118.175 90.0492 116.944 88.7235 116.082 87.0284C115.23 85.3333 114.804 83.3826 114.804 81.1761C114.804 78.9413 115.234 76.9811 116.096 75.2955C116.967 73.6004 118.203 72.2794 119.804 71.3324C121.404 70.3759 123.307 69.8977 125.514 69.8977C127.417 69.8977 129.084 70.2434 130.514 70.9347C131.944 71.6259 133.075 72.5966 133.909 73.8466C134.742 75.0966 135.201 76.5644 135.287 78.25H129.576C129.415 77.161 128.989 76.285 128.298 75.6222C127.616 74.9498 126.721 74.6136 125.613 74.6136C124.676 74.6136 123.857 74.8693 123.156 75.3807C122.465 75.8826 121.925 76.6165 121.537 77.5824C121.148 78.5483 120.954 79.7178 120.954 81.0909C120.954 82.483 121.144 83.6667 121.522 84.642C121.911 85.6174 122.455 86.3608 123.156 86.8722C123.857 87.3835 124.676 87.6392 125.613 87.6392C126.305 87.6392 126.925 87.4972 127.474 87.2131C128.033 86.929 128.492 86.517 128.852 85.9773C129.221 85.428 129.463 84.7699 129.576 84.0028H135.287C135.192 85.6695 134.737 87.1373 133.923 88.4062C133.118 89.6657 132.005 90.6506 130.585 91.3608C129.164 92.071 127.484 92.4261 125.542 92.4261ZM149.019 92.4261C146.812 92.4261 144.904 91.9574 143.294 91.0199C141.694 90.0729 140.458 88.7566 139.587 87.071C138.716 85.3759 138.28 83.411 138.28 81.1761C138.28 78.9223 138.716 76.9527 139.587 75.267C140.458 73.572 141.694 72.2557 143.294 71.3182C144.904 70.3712 146.812 69.8977 149.019 69.8977C151.225 69.8977 153.129 70.3712 154.729 71.3182C156.339 72.2557 157.579 73.572 158.451 75.267C159.322 76.9527 159.757 78.9223 159.757 81.1761C159.757 83.411 159.322 85.3759 158.451 87.071C157.579 88.7566 156.339 90.0729 154.729 91.0199C153.129 91.9574 151.225 92.4261 149.019 92.4261ZM149.047 87.7386C150.051 87.7386 150.889 87.4545 151.561 86.8864C152.234 86.3087 152.74 85.5227 153.081 84.5284C153.432 83.5341 153.607 82.4025 153.607 81.1335C153.607 79.8646 153.432 78.733 153.081 77.7386C152.74 76.7443 152.234 75.9583 151.561 75.3807C150.889 74.803 150.051 74.5142 149.047 74.5142C148.034 74.5142 147.182 74.803 146.49 75.3807C145.809 75.9583 145.292 76.7443 144.942 77.7386C144.601 78.733 144.431 79.8646 144.431 81.1335C144.431 82.4025 144.601 83.5341 144.942 84.5284C145.292 85.5227 145.809 86.3087 146.49 86.8864C147.182 87.4545 148.034 87.7386 149.047 87.7386ZM163.692 92V70.1818H169.459V74.0312H169.715C170.169 72.7528 170.927 71.7443 171.988 71.0057C173.048 70.267 174.317 69.8977 175.794 69.8977C177.291 69.8977 178.564 70.2718 179.615 71.0199C180.667 71.7585 181.367 72.7623 181.718 74.0312H181.945C182.39 72.7812 183.195 71.7822 184.36 71.0341C185.534 70.2765 186.921 69.8977 188.522 69.8977C190.558 69.8977 192.21 70.5464 193.479 71.8438C194.757 73.1316 195.397 74.9593 195.397 77.3267V92H189.36V78.5199C189.36 77.3078 189.038 76.3987 188.394 75.7926C187.75 75.1866 186.945 74.8835 185.979 74.8835C184.881 74.8835 184.024 75.2339 183.408 75.9347C182.792 76.6259 182.485 77.5398 182.485 78.6761V92H176.618V78.392C176.618 77.322 176.31 76.4697 175.695 75.8352C175.089 75.2008 174.289 74.8835 173.294 74.8835C172.622 74.8835 172.016 75.054 171.476 75.3949C170.946 75.7263 170.525 76.1951 170.212 76.8011C169.9 77.3977 169.743 78.0985 169.743 78.9034V92H163.692ZM210.12 92.4261C207.875 92.4261 205.944 91.9716 204.324 91.0625C202.714 90.1439 201.474 88.8466 200.603 87.1705C199.731 85.4848 199.296 83.4915 199.296 81.1903C199.296 78.946 199.731 76.9763 200.603 75.2812C201.474 73.5862 202.7 72.2652 204.282 71.3182C205.873 70.3712 207.738 69.8977 209.878 69.8977C211.318 69.8977 212.658 70.1297 213.898 70.5938C215.148 71.0483 216.237 71.7348 217.165 72.6534C218.103 73.572 218.832 74.7273 219.353 76.1193C219.873 77.5019 220.134 79.1212 220.134 80.9773V82.6392H201.711V78.8892H214.438C214.438 78.018 214.248 77.2462 213.87 76.5739C213.491 75.9015 212.965 75.3759 212.293 74.9972C211.63 74.6089 210.858 74.4148 209.978 74.4148C209.059 74.4148 208.245 74.6278 207.534 75.054C206.834 75.4706 206.284 76.0341 205.887 76.7443C205.489 77.4451 205.285 78.2263 205.276 79.0881V82.6534C205.276 83.733 205.475 84.6657 205.873 85.4517C206.28 86.2377 206.853 86.8438 207.591 87.2699C208.33 87.696 209.206 87.9091 210.219 87.9091C210.891 87.9091 211.507 87.8144 212.066 87.625C212.624 87.4356 213.103 87.1515 213.5 86.7727C213.898 86.3939 214.201 85.9299 214.409 85.3807L220.006 85.75C219.722 87.0947 219.14 88.2689 218.259 89.2727C217.388 90.267 216.261 91.0436 214.878 91.6023C213.505 92.1515 211.919 92.4261 210.12 92.4261ZM231.313 62.9091L230.759 83.2784H225.56L224.992 62.9091H231.313ZM228.159 92.3693C227.222 92.3693 226.417 92.0379 225.745 91.375C225.072 90.7027 224.741 89.8977 224.75 88.9602C224.741 88.0322 225.072 87.2367 225.745 86.5739C226.417 85.911 227.222 85.5795 228.159 85.5795C229.059 85.5795 229.85 85.911 230.532 86.5739C231.213 87.2367 231.559 88.0322 231.569 88.9602C231.559 89.5852 231.393 90.1581 231.071 90.679C230.759 91.1903 230.347 91.6023 229.836 91.9148C229.324 92.2178 228.766 92.3693 228.159 92.3693Z" fill="white"/>
<path id="Don&#226;&#128;&#153;t forget to manage your room!" d="M46.7494 132H41.3343V115.273H46.9209C48.5599 115.273 49.9675 115.608 51.1436 116.277C52.3197 116.942 53.2209 117.897 53.8471 119.144C54.4787 120.386 54.7945 121.875 54.7945 123.612C54.7945 125.354 54.476 126.852 53.8389 128.104C53.2073 129.356 52.2925 130.32 51.0946 130.995C49.8967 131.665 48.4483 132 46.7494 132ZM43.8581 129.795H46.6106C47.8847 129.795 48.9438 129.555 49.7878 129.076C50.6318 128.591 51.2634 127.892 51.6827 126.977C52.1019 126.057 52.3116 124.935 52.3116 123.612C52.3116 122.3 52.1019 121.186 51.6827 120.271C51.2688 119.357 50.6508 118.662 49.8286 118.189C49.0064 117.715 47.9855 117.478 46.7658 117.478H43.8581V129.795ZM63.0214 132.253C61.8452 132.253 60.8188 131.984 59.9422 131.445C59.0655 130.906 58.3849 130.151 57.9003 129.182C57.4156 128.213 57.1733 127.08 57.1733 125.784C57.1733 124.483 57.4156 123.345 57.9003 122.37C58.3849 121.396 59.0655 120.639 59.9422 120.1C60.8188 119.561 61.8452 119.291 63.0214 119.291C64.1975 119.291 65.2239 119.561 66.1005 120.1C66.9772 120.639 67.6578 121.396 68.1424 122.37C68.6271 123.345 68.8694 124.483 68.8694 125.784C68.8694 127.08 68.6271 128.213 68.1424 129.182C67.6578 130.151 66.9772 130.906 66.1005 131.445C65.2239 131.984 64.1975 132.253 63.0214 132.253ZM63.0295 130.203C63.7918 130.203 64.4235 130.002 64.9244 129.599C65.4254 129.196 65.7956 128.659 66.0352 127.99C66.2802 127.32 66.4027 126.582 66.4027 125.776C66.4027 124.976 66.2802 124.241 66.0352 123.571C65.7956 122.896 65.4254 122.354 64.9244 121.946C64.4235 121.537 63.7918 121.333 63.0295 121.333C62.2618 121.333 61.6247 121.537 61.1183 121.946C60.6174 122.354 60.2444 122.896 59.9993 123.571C59.7598 124.241 59.64 124.976 59.64 125.776C59.64 126.582 59.7598 127.32 59.9993 127.99C60.2444 128.659 60.6174 129.196 61.1183 129.599C61.6247 130.002 62.2618 130.203 63.0295 130.203ZM74.0374 124.551V132H71.5953V119.455H73.9394V121.496H74.0946C74.3832 120.832 74.8351 120.299 75.4504 119.896C76.0712 119.493 76.8525 119.291 77.7945 119.291C78.6494 119.291 79.3981 119.471 80.0406 119.83C80.6831 120.184 81.1814 120.712 81.5353 121.415C81.8892 122.117 82.0662 122.986 82.0662 124.02V132H79.6241V124.314C79.6241 123.405 79.3872 122.694 78.9135 122.183C78.4398 121.665 77.7891 121.407 76.9614 121.407C76.3951 121.407 75.8915 121.529 75.4504 121.774C75.0148 122.019 74.669 122.379 74.4131 122.852C74.1627 123.321 74.0374 123.887 74.0374 124.551ZM87.4405 115.273V116.841C87.4405 117.304 87.3534 117.791 87.1791 118.303C87.0103 118.809 86.7707 119.297 86.4604 119.765C86.15 120.233 85.7852 120.636 85.3659 120.974L84.1571 120.108C84.4784 119.64 84.7561 119.141 84.9902 118.613C85.2298 118.085 85.3496 117.502 85.3496 116.865V115.273H87.4405ZM96.139 119.455V121.415H89.2864V119.455H96.139ZM91.1241 116.449H93.5662V128.316C93.5662 128.79 93.637 129.147 93.7785 129.386C93.9201 129.621 94.1025 129.781 94.3258 129.868C94.5545 129.95 94.8022 129.991 95.069 129.991C95.265 129.991 95.4366 129.977 95.5836 129.95C95.7306 129.923 95.8449 129.901 95.9266 129.885L96.3677 131.902C96.2261 131.956 96.0246 132.011 95.7633 132.065C95.5019 132.125 95.1752 132.158 94.7832 132.163C94.1406 132.174 93.5417 132.06 92.9863 131.82C92.4309 131.581 91.9817 131.21 91.6386 130.71C91.2956 130.209 91.1241 129.58 91.1241 128.823V116.449ZM110.898 119.455V121.415H103.808V119.455H110.898ZM105.752 132V118.001C105.752 117.217 105.924 116.566 106.267 116.049C106.61 115.526 107.065 115.137 107.631 114.881C108.197 114.619 108.812 114.489 109.477 114.489C109.967 114.489 110.386 114.529 110.735 114.611C111.083 114.687 111.342 114.758 111.51 114.824L110.939 116.8C110.824 116.767 110.677 116.729 110.498 116.686C110.318 116.637 110.1 116.612 109.844 116.612C109.251 116.612 108.826 116.759 108.57 117.053C108.32 117.347 108.194 117.772 108.194 118.327V132H105.752ZM118.208 132.253C117.032 132.253 116.005 131.984 115.129 131.445C114.252 130.906 113.571 130.151 113.087 129.182C112.602 128.213 112.36 127.08 112.36 125.784C112.36 124.483 112.602 123.345 113.087 122.37C113.571 121.396 114.252 120.639 115.129 120.1C116.005 119.561 117.032 119.291 118.208 119.291C119.384 119.291 120.41 119.561 121.287 120.1C122.164 120.639 122.844 121.396 123.329 122.37C123.814 123.345 124.056 124.483 124.056 125.784C124.056 127.08 123.814 128.213 123.329 129.182C122.844 130.151 122.164 130.906 121.287 131.445C120.41 131.984 119.384 132.253 118.208 132.253ZM118.216 130.203C118.978 130.203 119.61 130.002 120.111 129.599C120.612 129.196 120.982 128.659 121.222 127.99C121.467 127.32 121.589 126.582 121.589 125.776C121.589 124.976 121.467 124.241 121.222 123.571C120.982 122.896 120.612 122.354 120.111 121.946C119.61 121.537 118.978 121.333 118.216 121.333C117.448 121.333 116.811 121.537 116.305 121.946C115.804 122.354 115.431 122.896 115.186 123.571C114.946 124.241 114.826 124.976 114.826 125.776C114.826 126.582 114.946 127.32 115.186 127.99C115.431 128.659 115.804 129.196 116.305 129.599C116.811 130.002 117.448 130.203 118.216 130.203ZM126.782 132V119.455H129.142V121.447H129.273C129.502 120.772 129.905 120.241 130.482 119.855C131.064 119.463 131.723 119.267 132.458 119.267C132.611 119.267 132.79 119.272 132.997 119.283C133.21 119.294 133.376 119.308 133.496 119.324V121.66C133.398 121.633 133.223 121.603 132.973 121.57C132.722 121.532 132.472 121.513 132.221 121.513C131.644 121.513 131.13 121.635 130.678 121.88C130.231 122.12 129.877 122.455 129.616 122.885C129.355 123.31 129.224 123.794 129.224 124.339V132H126.782ZM140.42 136.966C139.423 136.966 138.566 136.835 137.847 136.574C137.134 136.313 136.551 135.967 136.099 135.537C135.647 135.106 135.309 134.635 135.086 134.124L137.185 133.258C137.332 133.497 137.528 133.751 137.773 134.017C138.024 134.29 138.361 134.521 138.786 134.712C139.216 134.902 139.769 134.998 140.444 134.998C141.37 134.998 142.135 134.772 142.739 134.32C143.344 133.873 143.646 133.16 143.646 132.18V129.713H143.491C143.344 129.98 143.131 130.277 142.854 130.603C142.581 130.93 142.206 131.213 141.727 131.453C141.247 131.692 140.624 131.812 139.856 131.812C138.865 131.812 137.972 131.581 137.177 131.118C136.388 130.65 135.761 129.961 135.299 129.051C134.841 128.137 134.613 127.012 134.613 125.678C134.613 124.344 134.838 123.201 135.29 122.248C135.748 121.295 136.374 120.565 137.169 120.059C137.964 119.547 138.865 119.291 139.872 119.291C140.651 119.291 141.28 119.422 141.759 119.683C142.238 119.939 142.611 120.239 142.878 120.582C143.15 120.925 143.36 121.227 143.507 121.488H143.687V119.455H146.08V132.278C146.08 133.356 145.829 134.241 145.328 134.932C144.827 135.624 144.15 136.136 143.295 136.468C142.445 136.8 141.487 136.966 140.42 136.966ZM140.395 129.787C141.098 129.787 141.691 129.623 142.176 129.297C142.666 128.964 143.036 128.491 143.287 127.875C143.542 127.255 143.67 126.511 143.67 125.646C143.67 124.802 143.545 124.058 143.295 123.416C143.044 122.773 142.677 122.272 142.192 121.913C141.707 121.548 141.109 121.366 140.395 121.366C139.66 121.366 139.048 121.556 138.557 121.938C138.067 122.313 137.697 122.825 137.447 123.473C137.202 124.121 137.079 124.845 137.079 125.646C137.079 126.468 137.204 127.189 137.455 127.81C137.705 128.431 138.076 128.915 138.566 129.264C139.061 129.612 139.671 129.787 140.395 129.787ZM154.762 132.253C153.526 132.253 152.461 131.989 151.568 131.461C150.681 130.927 149.995 130.179 149.51 129.215C149.031 128.246 148.792 127.11 148.792 125.809C148.792 124.524 149.031 123.391 149.51 122.411C149.995 121.431 150.67 120.666 151.536 120.116C152.407 119.566 153.425 119.291 154.591 119.291C155.298 119.291 155.984 119.408 156.649 119.642C157.313 119.877 157.909 120.244 158.437 120.745C158.966 121.246 159.382 121.897 159.687 122.697C159.992 123.492 160.144 124.459 160.144 125.597V126.462H150.172V124.633H157.751C157.751 123.99 157.621 123.421 157.359 122.926C157.098 122.425 156.73 122.03 156.257 121.741C155.788 121.453 155.238 121.309 154.607 121.309C153.921 121.309 153.322 121.477 152.81 121.815C152.304 122.147 151.912 122.583 151.634 123.122C151.362 123.655 151.225 124.235 151.225 124.862V126.291C151.225 127.129 151.372 127.843 151.667 128.431C151.966 129.019 152.383 129.468 152.916 129.778C153.45 130.083 154.073 130.236 154.787 130.236C155.249 130.236 155.671 130.17 156.053 130.04C156.434 129.904 156.763 129.702 157.041 129.435C157.318 129.169 157.531 128.839 157.678 128.447L159.989 128.864C159.804 129.544 159.472 130.141 158.993 130.652C158.519 131.159 157.923 131.554 157.204 131.837C156.491 132.114 155.677 132.253 154.762 132.253ZM168.71 119.455V121.415H161.858V119.455H168.71ZM163.695 116.449H166.137V128.316C166.137 128.79 166.208 129.147 166.35 129.386C166.491 129.621 166.674 129.781 166.897 129.868C167.126 129.95 167.374 129.991 167.64 129.991C167.836 129.991 168.008 129.977 168.155 129.95C168.302 129.923 168.416 129.901 168.498 129.885L168.939 131.902C168.797 131.956 168.596 132.011 168.335 132.065C168.073 132.125 167.746 132.158 167.354 132.163C166.712 132.174 166.113 132.06 165.558 131.82C165.002 131.581 164.553 131.21 164.21 130.71C163.867 130.209 163.695 129.58 163.695 128.823V116.449ZM183.355 119.455V121.415H176.502V119.455H183.355ZM178.34 116.449H180.782V128.316C180.782 128.79 180.853 129.147 180.994 129.386C181.136 129.621 181.318 129.781 181.542 129.868C181.77 129.95 182.018 129.991 182.285 129.991C182.481 129.991 182.652 129.977 182.799 129.95C182.946 129.923 183.061 129.901 183.142 129.885L183.583 131.902C183.442 131.956 183.24 132.011 182.979 132.065C182.718 132.125 182.391 132.158 181.999 132.163C181.356 132.174 180.758 132.06 180.202 131.82C179.647 131.581 179.197 131.21 178.854 130.71C178.511 130.209 178.34 129.58 178.34 128.823V116.449ZM191.206 132.253C190.03 132.253 189.003 131.984 188.127 131.445C187.25 130.906 186.569 130.151 186.085 129.182C185.6 128.213 185.358 127.08 185.358 125.784C185.358 124.483 185.6 123.345 186.085 122.37C186.569 121.396 187.25 120.639 188.127 120.1C189.003 119.561 190.03 119.291 191.206 119.291C192.382 119.291 193.408 119.561 194.285 120.1C195.162 120.639 195.842 121.396 196.327 122.37C196.812 123.345 197.054 124.483 197.054 125.784C197.054 127.08 196.812 128.213 196.327 129.182C195.842 130.151 195.162 130.906 194.285 131.445C193.408 131.984 192.382 132.253 191.206 132.253ZM191.214 130.203C191.976 130.203 192.608 130.002 193.109 129.599C193.61 129.196 193.98 128.659 194.22 127.99C194.465 127.32 194.587 126.582 194.587 125.776C194.587 124.976 194.465 124.241 194.22 123.571C193.98 122.896 193.61 122.354 193.109 121.946C192.608 121.537 191.976 121.333 191.214 121.333C190.446 121.333 189.809 121.537 189.303 121.946C188.802 122.354 188.429 122.896 188.184 123.571C187.944 124.241 187.825 124.976 187.825 125.776C187.825 126.582 187.944 127.32 188.184 127.99C188.429 128.659 188.802 129.196 189.303 129.599C189.809 130.002 190.446 130.203 191.214 130.203ZM205.867 132V119.455H208.211V121.496H208.366C208.627 120.805 209.055 120.266 209.648 119.879C210.242 119.487 210.952 119.291 211.78 119.291C212.619 119.291 213.321 119.487 213.887 119.879C214.459 120.271 214.881 120.81 215.153 121.496H215.284C215.584 120.827 216.06 120.293 216.713 119.896C217.367 119.493 218.145 119.291 219.049 119.291C220.187 119.291 221.116 119.648 221.834 120.361C222.559 121.074 222.921 122.15 222.921 123.587V132H220.479V123.816C220.479 122.967 220.247 122.351 219.784 121.97C219.322 121.589 218.769 121.398 218.126 121.398C217.331 121.398 216.713 121.643 216.272 122.134C215.831 122.618 215.611 123.242 215.611 124.004V132H213.177V123.661C213.177 122.98 212.964 122.433 212.54 122.019C212.115 121.605 211.562 121.398 210.882 121.398C210.419 121.398 209.991 121.521 209.599 121.766C209.213 122.006 208.9 122.34 208.66 122.771C208.426 123.201 208.309 123.699 208.309 124.265V132H205.867ZM229.845 132.278C229.05 132.278 228.331 132.131 227.689 131.837C227.046 131.537 226.537 131.104 226.161 130.538C225.791 129.972 225.606 129.277 225.606 128.455C225.606 127.747 225.742 127.165 226.014 126.707C226.287 126.25 226.654 125.888 227.117 125.621C227.58 125.354 228.097 125.153 228.669 125.017C229.24 124.881 229.823 124.777 230.417 124.706C231.168 124.619 231.778 124.548 232.246 124.494C232.714 124.434 233.055 124.339 233.267 124.208C233.479 124.077 233.586 123.865 233.586 123.571V123.514C233.586 122.801 233.384 122.248 232.981 121.856C232.584 121.464 231.99 121.268 231.201 121.268C230.378 121.268 229.731 121.45 229.257 121.815C228.789 122.174 228.465 122.575 228.285 123.016L225.99 122.493C226.262 121.731 226.659 121.115 227.182 120.647C227.71 120.173 228.318 119.83 229.004 119.618C229.69 119.4 230.411 119.291 231.168 119.291C231.669 119.291 232.2 119.351 232.761 119.471C233.327 119.585 233.855 119.798 234.345 120.108C234.841 120.418 235.246 120.862 235.562 121.439C235.878 122.011 236.036 122.754 236.036 123.669V132H233.651V130.285H233.553C233.395 130.601 233.158 130.911 232.842 131.216C232.527 131.521 232.121 131.774 231.625 131.975C231.13 132.177 230.536 132.278 229.845 132.278ZM230.376 130.317C231.051 130.317 231.628 130.184 232.107 129.917C232.592 129.65 232.959 129.302 233.21 128.872C233.466 128.436 233.594 127.971 233.594 127.475V125.858C233.507 125.945 233.338 126.027 233.087 126.103C232.842 126.174 232.562 126.236 232.246 126.291C231.93 126.34 231.623 126.386 231.323 126.43C231.024 126.468 230.773 126.5 230.572 126.528C230.098 126.588 229.665 126.688 229.273 126.83C228.887 126.971 228.576 127.176 228.342 127.442C228.113 127.704 227.999 128.052 227.999 128.488C227.999 129.092 228.222 129.55 228.669 129.86C229.115 130.165 229.684 130.317 230.376 130.317ZM241.731 124.551V132H239.289V119.455H241.633V121.496H241.788C242.077 120.832 242.528 120.299 243.144 119.896C243.765 119.493 244.546 119.291 245.488 119.291C246.343 119.291 247.091 119.471 247.734 119.83C248.376 120.184 248.875 120.712 249.229 121.415C249.583 122.117 249.76 122.986 249.76 124.02V132H247.317V124.314C247.317 123.405 247.081 122.694 246.607 122.183C246.133 121.665 245.482 121.407 244.655 121.407C244.088 121.407 243.585 121.529 243.144 121.774C242.708 122.019 242.362 122.379 242.106 122.852C241.856 123.321 241.731 123.887 241.731 124.551ZM256.686 132.278C255.891 132.278 255.172 132.131 254.529 131.837C253.887 131.537 253.378 131.104 253.002 130.538C252.632 129.972 252.447 129.277 252.447 128.455C252.447 127.747 252.583 127.165 252.855 126.707C253.127 126.25 253.495 125.888 253.958 125.621C254.421 125.354 254.938 125.153 255.51 125.017C256.081 124.881 256.664 124.777 257.257 124.706C258.009 124.619 258.619 124.548 259.087 124.494C259.555 124.434 259.896 124.339 260.108 124.208C260.32 124.077 260.426 123.865 260.426 123.571V123.514C260.426 122.801 260.225 122.248 259.822 121.856C259.425 121.464 258.831 121.268 258.042 121.268C257.219 121.268 256.571 121.45 256.098 121.815C255.629 122.174 255.305 122.575 255.126 123.016L252.831 122.493C253.103 121.731 253.5 121.115 254.023 120.647C254.551 120.173 255.158 119.83 255.844 119.618C256.53 119.4 257.252 119.291 258.009 119.291C258.51 119.291 259.041 119.351 259.602 119.471C260.168 119.585 260.696 119.798 261.186 120.108C261.682 120.418 262.087 120.862 262.403 121.439C262.719 122.011 262.877 122.754 262.877 123.669V132H260.492V130.285H260.394C260.236 130.601 259.999 130.911 259.683 131.216C259.367 131.521 258.962 131.774 258.466 131.975C257.971 132.177 257.377 132.278 256.686 132.278ZM257.217 130.317C257.892 130.317 258.469 130.184 258.948 129.917C259.433 129.65 259.8 129.302 260.051 128.872C260.307 128.436 260.435 127.971 260.435 127.475V125.858C260.347 125.945 260.179 126.027 259.928 126.103C259.683 126.174 259.403 126.236 259.087 126.291C258.771 126.34 258.463 126.386 258.164 126.43C257.865 126.468 257.614 126.5 257.413 126.528C256.939 126.588 256.506 126.688 256.114 126.83C255.727 126.971 255.417 127.176 255.183 127.442C254.954 127.704 254.84 128.052 254.84 128.488C254.84 129.092 255.063 129.55 255.51 129.86C255.956 130.165 256.525 130.317 257.217 130.317ZM271.389 136.966C270.393 136.966 269.535 136.835 268.817 136.574C268.103 136.313 267.521 135.967 267.069 135.537C266.617 135.106 266.279 134.635 266.056 134.124L268.155 133.258C268.302 133.497 268.498 133.751 268.743 134.017C268.994 134.29 269.331 134.521 269.756 134.712C270.186 134.902 270.739 134.998 271.414 134.998C272.34 134.998 273.105 134.772 273.709 134.32C274.313 133.873 274.616 133.16 274.616 132.18V129.713H274.46C274.313 129.98 274.101 130.277 273.823 130.603C273.551 130.93 273.175 131.213 272.696 131.453C272.217 131.692 271.594 131.812 270.826 131.812C269.835 131.812 268.942 131.581 268.147 131.118C267.357 130.65 266.731 129.961 266.268 129.051C265.811 128.137 265.582 127.012 265.582 125.678C265.582 124.344 265.808 123.201 266.26 122.248C266.718 121.295 267.344 120.565 268.139 120.059C268.934 119.547 269.835 119.291 270.842 119.291C271.621 119.291 272.25 119.422 272.729 119.683C273.208 119.939 273.581 120.239 273.848 120.582C274.12 120.925 274.33 121.227 274.477 121.488H274.656V119.455H277.05V132.278C277.05 133.356 276.799 134.241 276.298 134.932C275.797 135.624 275.119 136.136 274.264 136.468C273.415 136.8 272.457 136.966 271.389 136.966ZM271.365 129.787C272.067 129.787 272.661 129.623 273.145 129.297C273.636 128.964 274.006 128.491 274.256 127.875C274.512 127.255 274.64 126.511 274.64 125.646C274.64 124.802 274.515 124.058 274.264 123.416C274.014 122.773 273.646 122.272 273.162 121.913C272.677 121.548 272.078 121.366 271.365 121.366C270.63 121.366 270.017 121.556 269.527 121.938C269.037 122.313 268.667 122.825 268.416 123.473C268.171 124.121 268.049 124.845 268.049 125.646C268.049 126.468 268.174 127.189 268.425 127.81C268.675 128.431 269.045 128.915 269.535 129.264C270.031 129.612 270.641 129.787 271.365 129.787ZM285.732 132.253C284.496 132.253 283.431 131.989 282.538 131.461C281.651 130.927 280.965 130.179 280.48 129.215C280.001 128.246 279.761 127.11 279.761 125.809C279.761 124.524 280.001 123.391 280.48 122.411C280.965 121.431 281.64 120.666 282.506 120.116C283.377 119.566 284.395 119.291 285.56 119.291C286.268 119.291 286.954 119.408 287.618 119.642C288.283 119.877 288.879 120.244 289.407 120.745C289.935 121.246 290.352 121.897 290.657 122.697C290.962 123.492 291.114 124.459 291.114 125.597V126.462H281.142V124.633H288.721C288.721 123.99 288.59 123.421 288.329 122.926C288.068 122.425 287.7 122.03 287.226 121.741C286.758 121.453 286.208 121.309 285.577 121.309C284.89 121.309 284.292 121.477 283.78 121.815C283.273 122.147 282.881 122.583 282.604 123.122C282.331 123.655 282.195 124.235 282.195 124.862V126.291C282.195 127.129 282.342 127.843 282.636 128.431C282.936 129.019 283.352 129.468 283.886 129.778C284.419 130.083 285.043 130.236 285.756 130.236C286.219 130.236 286.641 130.17 287.022 130.04C287.403 129.904 287.733 129.702 288.011 129.435C288.288 129.169 288.501 128.839 288.648 128.447L290.959 128.864C290.774 129.544 290.442 130.141 289.963 130.652C289.489 131.159 288.893 131.554 288.174 131.837C287.461 132.114 286.647 132.253 285.732 132.253ZM301.454 136.705C301.09 136.705 300.757 136.675 300.458 136.615C300.158 136.56 299.935 136.5 299.788 136.435L300.376 134.434C300.823 134.554 301.22 134.605 301.569 134.589C301.917 134.573 302.225 134.442 302.492 134.197C302.764 133.952 303.004 133.552 303.21 132.996L303.513 132.163L298.922 119.455H301.536L304.713 129.19H304.844L308.021 119.455H310.643L305.473 133.674C305.233 134.328 304.928 134.88 304.558 135.332C304.188 135.79 303.747 136.133 303.235 136.362C302.723 136.59 302.13 136.705 301.454 136.705ZM317.796 132.253C316.62 132.253 315.593 131.984 314.717 131.445C313.84 130.906 313.159 130.151 312.675 129.182C312.19 128.213 311.948 127.08 311.948 125.784C311.948 124.483 312.19 123.345 312.675 122.37C313.159 121.396 313.84 120.639 314.717 120.1C315.593 119.561 316.62 119.291 317.796 119.291C318.972 119.291 319.998 119.561 320.875 120.1C321.752 120.639 322.432 121.396 322.917 122.37C323.401 123.345 323.644 124.483 323.644 125.784C323.644 127.08 323.401 128.213 322.917 129.182C322.432 130.151 321.752 130.906 320.875 131.445C319.998 131.984 318.972 132.253 317.796 132.253ZM317.804 130.203C318.566 130.203 319.198 130.002 319.699 129.599C320.2 129.196 320.57 128.659 320.81 127.99C321.055 127.32 321.177 126.582 321.177 125.776C321.177 124.976 321.055 124.241 320.81 123.571C320.57 122.896 320.2 122.354 319.699 121.946C319.198 121.537 318.566 121.333 317.804 121.333C317.036 121.333 316.399 121.537 315.893 121.946C315.392 122.354 315.019 122.896 314.774 123.571C314.534 124.241 314.414 124.976 314.414 125.776C314.414 126.582 314.534 127.32 314.774 127.99C315.019 128.659 315.392 129.196 315.893 129.599C316.399 130.002 317.036 130.203 317.804 130.203ZM334.317 126.797V119.455H336.767V132H334.366V129.827H334.235C333.947 130.497 333.484 131.055 332.847 131.502C332.215 131.943 331.428 132.163 330.486 132.163C329.68 132.163 328.967 131.986 328.346 131.632C327.731 131.273 327.246 130.742 326.892 130.04C326.544 129.337 326.37 128.469 326.37 127.434V119.455H328.812V127.14C328.812 127.995 329.049 128.676 329.522 129.182C329.996 129.689 330.611 129.942 331.368 129.942C331.826 129.942 332.28 129.827 332.732 129.599C333.19 129.37 333.568 129.024 333.868 128.561C334.173 128.099 334.322 127.511 334.317 126.797ZM340.048 132V119.455H342.409V121.447H342.54C342.768 120.772 343.171 120.241 343.748 119.855C344.331 119.463 344.99 119.267 345.725 119.267C345.877 119.267 346.057 119.272 346.264 119.283C346.476 119.294 346.642 119.308 346.762 119.324V121.66C346.664 121.633 346.49 121.603 346.239 121.57C345.989 121.532 345.739 121.513 345.488 121.513C344.911 121.513 344.396 121.635 343.944 121.88C343.498 122.12 343.144 122.455 342.883 122.885C342.621 123.31 342.491 123.794 342.491 124.339V132H340.048ZM354.962 132V119.455H357.323V121.447H357.454C357.682 120.772 358.085 120.241 358.662 119.855C359.245 119.463 359.904 119.267 360.639 119.267C360.791 119.267 360.971 119.272 361.178 119.283C361.39 119.294 361.556 119.308 361.676 119.324V121.66C361.578 121.633 361.404 121.603 361.154 121.57C360.903 121.532 360.653 121.513 360.402 121.513C359.825 121.513 359.31 121.635 358.858 121.88C358.412 122.12 358.058 122.455 357.797 122.885C357.535 123.31 357.405 123.794 357.405 124.339V132H354.962ZM368.625 132.253C367.449 132.253 366.422 131.984 365.546 131.445C364.669 130.906 363.988 130.151 363.504 129.182C363.019 128.213 362.777 127.08 362.777 125.784C362.777 124.483 363.019 123.345 363.504 122.37C363.988 121.396 364.669 120.639 365.546 120.1C366.422 119.561 367.449 119.291 368.625 119.291C369.801 119.291 370.827 119.561 371.704 120.1C372.581 120.639 373.261 121.396 373.746 122.37C374.231 123.345 374.473 124.483 374.473 125.784C374.473 127.08 374.231 128.213 373.746 129.182C373.261 130.151 372.581 130.906 371.704 131.445C370.827 131.984 369.801 132.253 368.625 132.253ZM368.633 130.203C369.395 130.203 370.027 130.002 370.528 129.599C371.029 129.196 371.399 128.659 371.639 127.99C371.884 127.32 372.006 126.582 372.006 125.776C372.006 124.976 371.884 124.241 371.639 123.571C371.399 122.896 371.029 122.354 370.528 121.946C370.027 121.537 369.395 121.333 368.633 121.333C367.865 121.333 367.228 121.537 366.722 121.946C366.221 122.354 365.848 122.896 365.603 123.571C365.363 124.241 365.243 124.976 365.243 125.776C365.243 126.582 365.363 127.32 365.603 127.99C365.848 128.659 366.221 129.196 366.722 129.599C367.228 130.002 367.865 130.203 368.633 130.203ZM382.483 132.253C381.307 132.253 380.281 131.984 379.404 131.445C378.527 130.906 377.847 130.151 377.362 129.182C376.878 128.213 376.635 127.08 376.635 125.784C376.635 124.483 376.878 123.345 377.362 122.37C377.847 121.396 378.527 120.639 379.404 120.1C380.281 119.561 381.307 119.291 382.483 119.291C383.659 119.291 384.686 119.561 385.562 120.1C386.439 120.639 387.12 121.396 387.604 122.37C388.089 123.345 388.331 124.483 388.331 125.784C388.331 127.08 388.089 128.213 387.604 129.182C387.12 130.151 386.439 130.906 385.562 131.445C384.686 131.984 383.659 132.253 382.483 132.253ZM382.491 130.203C383.254 130.203 383.885 130.002 384.386 129.599C384.887 129.196 385.258 128.659 385.497 127.99C385.742 127.32 385.865 126.582 385.865 125.776C385.865 124.976 385.742 124.241 385.497 123.571C385.258 122.896 384.887 122.354 384.386 121.946C383.885 121.537 383.254 121.333 382.491 121.333C381.724 121.333 381.087 121.537 380.58 121.946C380.079 122.354 379.706 122.896 379.461 123.571C379.222 124.241 379.102 124.976 379.102 125.776C379.102 126.582 379.222 127.32 379.461 127.99C379.706 128.659 380.079 129.196 380.58 129.599C381.087 130.002 381.724 130.203 382.491 130.203ZM391.057 132V119.455H393.401V121.496H393.557C393.818 120.805 394.245 120.266 394.839 119.879C395.432 119.487 396.143 119.291 396.971 119.291C397.809 119.291 398.512 119.487 399.078 119.879C399.65 120.271 400.072 120.81 400.344 121.496H400.474C400.774 120.827 401.25 120.293 401.904 119.896C402.557 119.493 403.336 119.291 404.24 119.291C405.378 119.291 406.306 119.648 407.025 120.361C407.749 121.074 408.111 122.15 408.111 123.587V132H405.669V123.816C405.669 122.967 405.438 122.351 404.975 121.97C404.512 121.589 403.959 121.398 403.317 121.398C402.522 121.398 401.904 121.643 401.463 122.134C401.022 122.618 400.801 123.242 400.801 124.004V132H398.367V123.661C398.367 122.98 398.155 122.433 397.73 122.019C397.305 121.605 396.753 121.398 396.072 121.398C395.609 121.398 395.182 121.521 394.79 121.766C394.403 122.006 394.09 122.34 393.851 122.771C393.616 123.201 393.499 123.699 393.499 124.265V132H391.057ZM414.464 115.273L414.251 127.189H411.989L411.776 115.273H414.464ZM413.124 132.155C412.672 132.155 412.286 131.997 411.964 131.681C411.643 131.36 411.485 130.974 411.491 130.522C411.485 130.075 411.643 129.694 411.964 129.378C412.286 129.057 412.672 128.896 413.124 128.896C413.565 128.896 413.946 129.057 414.268 129.378C414.589 129.694 414.752 130.075 414.758 130.522C414.752 130.821 414.673 131.096 414.521 131.347C414.374 131.592 414.178 131.788 413.933 131.935C413.688 132.082 413.418 132.155 413.124 132.155Z" fill="white"/>
</g>
</g>
</g>
</g>
<defs>
<filter id="filter0_i_2575_1502" x="-194" y="-233" width="2180" height="2144.61" filterUnits="userSpaceOnUse" color-interpolation-filters="sRGB">
<feFlood flood-opacity="0" result="BackgroundImageFix"/>
<feBlend mode="normal" in="SourceGraphic" in2="BackgroundImageFix" result="shape"/>
<feColorMatrix in="SourceAlpha" type="matrix" values="0 0 0 0 0 0 0 0 0 0 0 0 0 0 0 0 0 0 127 0" result="hardAlpha"/>
<feMorphology radius="24" operator="erode" in="SourceAlpha" result="effect1_innerShadow_2575_1502"/>
<feOffset dx="24" dy="32"/>
<feGaussianBlur stdDeviation="92"/>
<feComposite in2="hardAlpha" operator="arithmetic" k2="-1" k3="1"/>
<feColorMatrix type="matrix" values="0 0 0 0 0.0235294 0 0 0 0 0.0313726 0 0 0 0 0.34902 0 0 0 0.75 0"/>
<feBlend mode="normal" in2="shape" result="effect1_innerShadow_2575_1502"/>
</filter>
<filter id="filter1_i_2575_1502" x="-194" y="5.61719" width="1694.33" height="1667.38" filterUnits="userSpaceOnUse" color-interpolation-filters="sRGB">
<feFlood flood-opacity="0" result="BackgroundImageFix"/>
<feBlend mode="normal" in="SourceGraphic" in2="BackgroundImageFix" result="shape"/>
<feColorMatrix in="SourceAlpha" type="matrix" values="0 0 0 0 0 0 0 0 0 0 0 0 0 0 0 0 0 0 127 0" result="hardAlpha"/>
<feMorphology radius="24" operator="erode" in="SourceAlpha" result="effect1_innerShadow_2575_1502"/>
<feOffset dx="24" dy="32"/>
<feGaussianBlur stdDeviation="92"/>
<feComposite in2="hardAlpha" operator="arithmetic" k2="-1" k3="1"/>
<feColorMatrix type="matrix" values="0 0 0 0 0.0235294 0 0 0 0 0.0313726 0 0 0 0 0.34902 0 0 0 0.75 0"/>
<feBlend mode="normal" in2="shape" result="effect1_innerShadow_2575_1502"/>
</filter>
<filter id="filter2_i_2575_1502" x="-100" y="206.875" width="1442.45" height="1421.53" filterUnits="userSpaceOnUse" color-interpolation-filters="sRGB">
<feFlood flood-opacity="0" result="BackgroundImageFix"/>
<feBlend mode="normal" in="SourceGraphic" in2="BackgroundImageFix" result="shape"/>
<feColorMatrix in="SourceAlpha" type="matrix" values="0 0 0 0 0 0 0 0 0 0 0 0 0 0 0 0 0 0 127 0" result="hardAlpha"/>
<feMorphology radius="24" operator="erode" in="SourceAlpha" result="effect1_innerShadow_2575_1502"/>
<feOffset dx="24" dy="32"/>
<feGaussianBlur stdDeviation="92"/>
<feComposite in2="hardAlpha" operator="arithmetic" k2="-1" k3="1"/>
<feColorMatrix type="matrix" values="0 0 0 0 0.0235294 0 0 0 0 0.0313726 0 0 0 0 0.34902 0 0 0 0.75 0"/>
<feBlend mode="normal" in2="shape" result="effect1_innerShadow_2575_1502"/>
</filter>
<radialGradient id="paint0_radial_2575_1502" cx="0" cy="0" r="1" gradientUnits="userSpaceOnUse" gradientTransform="translate(825 116) rotate(90) scale(350.148 598.695)">
<stop stop-color="#3B8AFF"/>
<stop offset="1" stop-color="#0048B3"/>
</radialGradient>
<clipPath id="clip0_2575_1502">
<path d="M0 0H1650V216C1650 224.837 1642.84 232 1634 232H16C7.16343 232 0 224.837 0 216V0Z" fill="white"/>
</clipPath>
</defs>
</svg>
